<svg xmlns="http://www.w3.org/2000/svg" viewBox="0 0 1102.21 254.17"><defs><style>.a,.b,.c{fill:none;stroke:#000;}.a,.b{stroke-miterlimit:10;}.b{stroke-width:1.5px;}.c{stroke-linecap:round;stroke-linejoin:round;}</style></defs><title>San Francisco</title><line class="a" x1="542.45" y1="21.67" x2="542.45"/><path class="b" d="M349.64,364.41l-0.39-.66h2.25V330.5h3.62v-3.75h4.5l-4-6.5h4.13V306.62h3.87V286.25h3.05V275.33c0-9.33,3.33-9.66,3.33-9.66s3.33,0.33,3.33,9.66v10.92h3v20.37h3.88v13.62h4.12l-4,6.5h4.5v3.75h3.63v33.25h2.25l-2.13,3.63v82.25H351.38V367.38l-1.74-3" transform="translate(172.45 -244)"/><polyline class="b" points="523.95 119.75 529.03 119.75 535.97 119.75 542.9 119.75 560.95 119.75"/><polyline class="b" points="523.83 123.38 529.03 123.38 535.97 123.38 542.9 123.38 549.84 123.38 561.07 123.38"/><polyline class="b" points="557.32 86.5 542.9 86.5 542.86 86.5 527.57 86.5"/><line class="b" x1="532.07" y1="82.75" x2="552.82" y2="82.75"/><line class="b" x1="536.07" y1="62.63" x2="548.82" y2="62.63"/><line class="b" x1="539.11" y1="42.25" x2="545.78" y2="42.25"/><line class="a" x1="541.07" y1="42.25" x2="541.07" y2="62.63"/><line class="a" x1="544.07" y1="42.25" x2="544.07" y2="62.63"/><path class="a" d="M375.63,306.63" transform="translate(172.45 -244)"/><path class="a" d="M375.63,286.25" transform="translate(172.45 -244)"/><line class="b" x1="539.11" y1="31.75" x2="545.78" y2="31.75"/><line class="b" x1="532.2" y1="76.25" x2="552.7" y2="76.25"/><rect class="a" x="526.83" y="99.62" width="5.37" height="13.76"/><rect class="a" x="535.83" y="99.62" width="5.37" height="13.76"/><rect class="a" x="543.83" y="99.62" width="5.37" height="13.76"/><rect class="a" x="552.83" y="99.62" width="5.37" height="13.76"/><rect class="a" x="526.95" y="125.83" width="2.58" height="2.59"/><rect class="a" x="533.95" y="125.83" width="2.58" height="2.59"/><rect class="a" x="540.95" y="125.83" width="2.58" height="2.59"/><rect class="a" x="547.95" y="125.83" width="2.58" height="2.59"/><rect class="a" x="554.95" y="125.83" width="2.58" height="2.59"/><circle class="b" cx="542.57" cy="151.5" r="12.38"/><circle class="b" cx="542.57" cy="151.5" r="6.89"/><polyline class="a" points="542.57 158.39 542.57 151.5 547.51 151.5"/><line class="b" x1="523.95" y1="136.33" x2="561.07" y2="136.33"/><rect class="a" x="526.82" y="183.33" width="5.38" height="13.83"/><rect class="a" x="535.82" y="183.33" width="5.38" height="13.83"/><rect class="a" x="543.82" y="183.33" width="5.38" height="13.83"/><rect class="a" x="552.82" y="183.33" width="5.38" height="13.83"/><polyline class="b" points="523.82 205.63 490.7 205.63 481.7 222.75 606.45 222.75 596.2 205.63 561.07 205.63"/><polyline class="b" points="483.95 222.75 483.95 253.25 603.95 253.25 603.95 222.75"/><polyline class="a" points="489.95 222.75 489.95 245.33 492.61 245.33 492.61 253.25"/><polyline class="a" points="509.95 222.75 509.95 245.33 512.61 245.33 512.61 253.25"/><polyline class="a" points="504.61 222.75 504.61 245.33 501.95 245.33 501.95 253.25"/><polyline class="a" points="534.95 222.75 534.95 245.33 537.61 245.33 537.61 253.25"/><polyline class="a" points="529.61 222.75 529.61 245.33 526.95 245.33 526.95 253.25"/><polyline class="a" points="598.61 222.75 598.61 245.33 595.95 245.33 595.95 253.25"/><polyline class="a" points="578.61 222.75 578.61 245.33 575.95 245.33 575.95 253.25"/><polyline class="a" points="583.95 222.75 583.95 245.33 586.61 245.33 586.61 253.25"/><polyline class="a" points="553.61 222.75 553.61 245.33 550.95 245.33 550.95 253.25"/><polyline class="a" points="558.95 222.75 558.95 245.33 561.61 245.33 561.61 253.25"/><rect class="a" x="492.61" y="225.33" width="9.33" height="7"/><path class="a" d="M320.17,484.5h10.67s-0.67-5.5-5.5-5.5S320.17,484.5,320.17,484.5Z" transform="translate(172.45 -244)"/><rect class="a" x="586.61" y="225.33" width="9.33" height="7"/><path class="a" d="M413.17,484.5h10.67s-0.67-5.5-5.5-5.5S413.17,484.5,413.17,484.5Z" transform="translate(172.45 -244)"/><path class="a" d="M339.63,484.83h14.75s1.57-16-7.37-16S339.63,484.83,339.63,484.83Z" transform="translate(172.45 -244)"/><path class="a" d="M364.63,484.83h14.75s1.57-16-7.37-16S364.63,484.83,364.63,484.83Z" transform="translate(172.45 -244)"/><path class="a" d="M388.63,484.83h14.75s1.57-16-7.37-16S388.63,484.83,388.63,484.83Z" transform="translate(172.45 -244)"/><polyline class="b" points="310.78 216.83 310.78 247.33 483.95 247.33"/><line class="a" x1="310.78" y1="219.67" x2="483.32" y2="219.67"/><path class="a" d="M142.25,491.33S141.38,478,147.38,478" transform="translate(172.45 -244)"/><path class="a" d="M152.33,491.33S153.21,478,147.21,478" transform="translate(172.45 -244)"/><path class="a" d="M154.25,491.33S153.38,478,159.38,478" transform="translate(172.45 -244)"/><path class="a" d="M164.33,491.33S165.21,478,159.21,478" transform="translate(172.45 -244)"/><path class="a" d="M166.25,491.33S165.38,478,171.38,478" transform="translate(172.45 -244)"/><path class="a" d="M176.33,491.33S177.21,478,171.21,478" transform="translate(172.45 -244)"/><path class="a" d="M178.25,491.33S177.38,478,183.38,478" transform="translate(172.45 -244)"/><path class="a" d="M188.33,491.33S189.21,478,183.21,478" transform="translate(172.45 -244)"/><path class="a" d="M190.25,491.33S189.38,478,195.38,478" transform="translate(172.45 -244)"/><path class="a" d="M200.33,491.33S201.21,478,195.21,478" transform="translate(172.45 -244)"/><path class="a" d="M202.25,491.33S201.38,478,207.38,478" transform="translate(172.45 -244)"/><path class="a" d="M212.33,491.33S213.21,478,207.21,478" transform="translate(172.45 -244)"/><path class="a" d="M214.25,491.33S213.38,478,219.38,478" transform="translate(172.45 -244)"/><path class="a" d="M224.33,491.33S225.21,478,219.21,478" transform="translate(172.45 -244)"/><path class="a" d="M226.25,491.33S225.38,478,231.38,478" transform="translate(172.45 -244)"/><path class="a" d="M236.33,491.33S237.21,478,231.21,478" transform="translate(172.45 -244)"/><path class="a" d="M238.25,491.33S237.38,478,243.38,478" transform="translate(172.45 -244)"/><path class="a" d="M248.33,491.33S249.21,478,243.21,478" transform="translate(172.45 -244)"/><path class="a" d="M250.25,491.33S249.38,478,255.38,478" transform="translate(172.45 -244)"/><path class="a" d="M260.33,491.33S261.21,478,255.21,478" transform="translate(172.45 -244)"/><path class="a" d="M262.25,491.33S261.38,478,267.38,478" transform="translate(172.45 -244)"/><path class="a" d="M272.33,491.33S273.21,478,267.21,478" transform="translate(172.45 -244)"/><path class="a" d="M274.25,491.33S273.38,478,279.38,478" transform="translate(172.45 -244)"/><path class="a" d="M284.33,491.33S285.21,478,279.21,478" transform="translate(172.45 -244)"/><path class="a" d="M286.25,491.33S285.38,478,291.38,478" transform="translate(172.45 -244)"/><path class="a" d="M296.33,491.33S297.21,478,291.21,478" transform="translate(172.45 -244)"/><path class="a" d="M298.25,491.33S297.38,478,303.38,478" transform="translate(172.45 -244)"/><path class="a" d="M308.33,491.33S309.21,478,303.21,478" transform="translate(172.45 -244)"/><path class="a" d="M142.21,476.42h10.17v-6.25h-1.62s0.16-4.67-3.54-4.67-3.54,4.67-3.54,4.67h-1.46v6.25Z" transform="translate(172.45 -244)"/><path class="a" d="M154.21,476.42h10.17v-6.25h-1.62s0.16-4.67-3.54-4.67-3.54,4.67-3.54,4.67h-1.46v6.25Z" transform="translate(172.45 -244)"/><path class="a" d="M166.21,476.42h10.17v-6.25h-1.62s0.16-4.67-3.54-4.67-3.54,4.67-3.54,4.67h-1.46v6.25Z" transform="translate(172.45 -244)"/><path class="a" d="M178.21,476.42h10.17v-6.25h-1.62s0.16-4.67-3.54-4.67-3.54,4.67-3.54,4.67h-1.46v6.25Z" transform="translate(172.45 -244)"/><path class="a" d="M190.21,476.42h10.17v-6.25h-1.62s0.16-4.67-3.54-4.67-3.54,4.67-3.54,4.67h-1.46v6.25Z" transform="translate(172.45 -244)"/><path class="a" d="M202.21,476.42h10.17v-6.25h-1.62s0.16-4.67-3.54-4.67-3.54,4.67-3.54,4.67h-1.46v6.25Z" transform="translate(172.45 -244)"/><path class="a" d="M214.21,476.42h10.17v-6.25h-1.62s0.16-4.67-3.54-4.67-3.54,4.67-3.54,4.67h-1.46v6.25Z" transform="translate(172.45 -244)"/><path class="a" d="M226.21,476.42h10.17v-6.25h-1.62s0.16-4.67-3.54-4.67-3.54,4.67-3.54,4.67h-1.46v6.25Z" transform="translate(172.45 -244)"/><path class="a" d="M238.21,476.42h10.17v-6.25h-1.62s0.16-4.67-3.54-4.67-3.54,4.67-3.54,4.67h-1.46v6.25Z" transform="translate(172.45 -244)"/><path class="a" d="M250.21,476.42h10.17v-6.25h-1.62s0.16-4.67-3.54-4.67-3.54,4.67-3.54,4.67h-1.46v6.25Z" transform="translate(172.45 -244)"/><path class="a" d="M262.21,476.42h10.17v-6.25h-1.62s0.16-4.67-3.54-4.67-3.54,4.67-3.54,4.67h-1.46v6.25Z" transform="translate(172.45 -244)"/><path class="a" d="M274.21,476.42h10.17v-6.25h-1.62s0.16-4.67-3.54-4.67-3.54,4.67-3.54,4.67h-1.46v6.25Z" transform="translate(172.45 -244)"/><path class="a" d="M286.21,476.42h10.17v-6.25h-1.62s0.16-4.67-3.54-4.67-3.54,4.67-3.54,4.67h-1.46v6.25Z" transform="translate(172.45 -244)"/><path class="a" d="M298.21,476.42h10.17v-6.25h-1.62s0.16-4.67-3.54-4.67-3.54,4.67-3.54,4.67h-1.46v6.25Z" transform="translate(172.45 -244)"/><polyline class="b" points="599.78 210.9 771.09 210.9 776.92 216.83 602.9 216.83"/><polyline class="b" points="776.92 216.83 776.92 247.33 603.76 247.33"/><line class="a" x1="776.92" y1="219.67" x2="604.39" y2="219.67"/><path class="a" d="M600.56,491.33S601.44,478,595.44,478" transform="translate(172.45 -244)"/><path class="a" d="M590.48,491.33S589.61,478,595.61,478" transform="translate(172.45 -244)"/><path class="a" d="M588.56,491.33S589.44,478,583.44,478" transform="translate(172.45 -244)"/><path class="a" d="M578.48,491.33S577.61,478,583.61,478" transform="translate(172.45 -244)"/><path class="a" d="M576.56,491.33S577.44,478,571.44,478" transform="translate(172.45 -244)"/><path class="a" d="M566.48,491.33S565.61,478,571.61,478" transform="translate(172.45 -244)"/><path class="a" d="M564.56,491.33S565.44,478,559.44,478" transform="translate(172.45 -244)"/><path class="a" d="M554.48,491.33S553.61,478,559.61,478" transform="translate(172.45 -244)"/><path class="a" d="M552.56,491.33S553.44,478,547.44,478" transform="translate(172.45 -244)"/><path class="a" d="M542.48,491.33S541.61,478,547.61,478" transform="translate(172.45 -244)"/><path class="a" d="M540.56,491.33S541.44,478,535.44,478" transform="translate(172.45 -244)"/><path class="a" d="M530.48,491.33S529.61,478,535.61,478" transform="translate(172.45 -244)"/><path class="a" d="M528.56,491.33S529.44,478,523.44,478" transform="translate(172.45 -244)"/><path class="a" d="M518.48,491.33S517.61,478,523.61,478" transform="translate(172.45 -244)"/><path class="a" d="M516.56,491.33S517.44,478,511.44,478" transform="translate(172.45 -244)"/><path class="a" d="M506.48,491.33S505.61,478,511.61,478" transform="translate(172.45 -244)"/><path class="a" d="M504.56,491.33S505.44,478,499.44,478" transform="translate(172.45 -244)"/><path class="a" d="M494.48,491.33S493.61,478,499.61,478" transform="translate(172.45 -244)"/><path class="a" d="M492.56,491.33S493.44,478,487.44,478" transform="translate(172.45 -244)"/><path class="a" d="M482.48,491.33S481.61,478,487.61,478" transform="translate(172.45 -244)"/><path class="a" d="M480.56,491.33S481.44,478,475.44,478" transform="translate(172.45 -244)"/><path class="a" d="M470.48,491.33S469.61,478,475.61,478" transform="translate(172.45 -244)"/><path class="a" d="M468.56,491.33S469.44,478,463.44,478" transform="translate(172.45 -244)"/><path class="a" d="M458.48,491.33S457.61,478,463.61,478" transform="translate(172.45 -244)"/><path class="a" d="M456.56,491.33S457.44,478,451.44,478" transform="translate(172.45 -244)"/><path class="a" d="M446.48,491.33S445.61,478,451.61,478" transform="translate(172.45 -244)"/><path class="a" d="M444.56,491.33S445.44,478,439.44,478" transform="translate(172.45 -244)"/><path class="a" d="M434.48,491.33S433.61,478,439.61,478" transform="translate(172.45 -244)"/><path class="a" d="M600.61,476.42H590.44v-6.25h1.63s-0.16-4.67,3.54-4.67,3.54,4.67,3.54,4.67h1.46v6.25Z" transform="translate(172.45 -244)"/><path class="a" d="M588.61,476.42H578.44v-6.25h1.63s-0.16-4.67,3.54-4.67,3.54,4.67,3.54,4.67h1.46v6.25Z" transform="translate(172.45 -244)"/><path class="a" d="M576.61,476.42H566.44v-6.25h1.63s-0.16-4.67,3.54-4.67,3.54,4.67,3.54,4.67h1.46v6.25Z" transform="translate(172.45 -244)"/><path class="a" d="M564.61,476.42H554.44v-6.25h1.63s-0.16-4.67,3.54-4.67,3.54,4.67,3.54,4.67h1.46v6.25Z" transform="translate(172.45 -244)"/><path class="a" d="M552.61,476.42H542.44v-6.25h1.63s-0.16-4.67,3.54-4.67,3.54,4.67,3.54,4.67h1.46v6.25Z" transform="translate(172.45 -244)"/><path class="a" d="M540.61,476.42H530.44v-6.25h1.63s-0.16-4.67,3.54-4.67,3.54,4.67,3.54,4.67h1.46v6.25Z" transform="translate(172.45 -244)"/><path class="a" d="M528.61,476.42H518.44v-6.25h1.63s-0.16-4.67,3.54-4.67,3.54,4.67,3.54,4.67h1.46v6.25Z" transform="translate(172.45 -244)"/><path class="a" d="M516.61,476.42H506.44v-6.25h1.63s-0.16-4.67,3.54-4.67,3.54,4.67,3.54,4.67h1.46v6.25Z" transform="translate(172.45 -244)"/><path class="a" d="M504.61,476.42H494.44v-6.25h1.63s-0.16-4.67,3.54-4.67,3.54,4.67,3.54,4.67h1.46v6.25Z" transform="translate(172.45 -244)"/><path class="a" d="M492.61,476.42H482.44v-6.25h1.63s-0.16-4.67,3.54-4.67,3.54,4.67,3.54,4.67h1.46v6.25Z" transform="translate(172.45 -244)"/><path class="a" d="M480.61,476.42H470.44v-6.25h1.63s-0.16-4.67,3.54-4.67,3.54,4.67,3.54,4.67h1.46v6.25Z" transform="translate(172.45 -244)"/><path class="a" d="M468.61,476.42H458.44v-6.25h1.63s-0.16-4.67,3.54-4.67,3.54,4.67,3.54,4.67h1.46v6.25Z" transform="translate(172.45 -244)"/><path class="a" d="M456.61,476.42H446.44v-6.25h1.63s-0.16-4.67,3.54-4.67,3.54,4.67,3.54,4.67h1.46v6.25Z" transform="translate(172.45 -244)"/><path class="a" d="M444.61,476.42H434.44v-6.25h1.63s-0.16-4.67,3.54-4.67,3.54,4.67,3.54,4.67h1.46v6.25Z" transform="translate(172.45 -244)"/><line class="b" x1="843.88" y1="99.5" x2="843.88" y2="230.9"/><rect class="a" x="848.32" y="102" width="3.38" height="3.38"/><rect class="a" x="848.32" y="108" width="3.38" height="3.38"/><rect class="a" x="848.32" y="114" width="3.38" height="3.38"/><rect class="a" x="848.32" y="120" width="3.38" height="3.38"/><rect class="a" x="848.32" y="126" width="3.38" height="3.38"/><rect class="a" x="848.32" y="132" width="3.38" height="3.38"/><rect class="a" x="848.32" y="138" width="3.38" height="3.38"/><rect class="a" x="848.32" y="144" width="3.38" height="3.38"/><rect class="a" x="848.32" y="150" width="3.38" height="3.38"/><rect class="a" x="848.32" y="156" width="3.38" height="3.38"/><rect class="a" x="848.32" y="162" width="3.38" height="3.38"/><rect class="a" x="848.32" y="168" width="3.38" height="3.38"/><rect class="a" x="848.32" y="180" width="3.38" height="3.38"/><rect class="a" x="848.32" y="186" width="3.38" height="3.38"/><rect class="a" x="848.32" y="192" width="3.38" height="3.38"/><rect class="a" x="848.32" y="198" width="3.38" height="3.38"/><rect class="a" x="848.32" y="204" width="3.38" height="3.38"/><rect class="a" x="848.32" y="210" width="3.38" height="3.38"/><rect class="a" x="848.32" y="216" width="3.38" height="3.38"/><rect class="a" x="848.32" y="222" width="3.38" height="3.38"/><path class="b" d="M604.48,464.9" transform="translate(172.45 -244)"/><polyline class="b" points="856.05 230.9 856.05 99.5 843.88 99.5 843.88 95 814.05 95 814.05 99.5 801.88 99.5 801.88 230.9"/><line class="b" x1="814.05" y1="99.5" x2="814.05" y2="230.9"/><rect class="a" x="633.79" y="346" width="3.38" height="3.38" transform="translate(1443.4 451.38) rotate(-180)"/><rect class="a" x="633.79" y="352" width="3.38" height="3.38" transform="translate(1443.4 463.38) rotate(-180)"/><rect class="a" x="633.79" y="358" width="3.38" height="3.38" transform="translate(1443.4 475.38) rotate(-180)"/><rect class="a" x="633.79" y="364" width="3.38" height="3.38" transform="translate(1443.4 487.38) rotate(-180)"/><rect class="a" x="633.79" y="370" width="3.38" height="3.38" transform="translate(1443.4 499.38) rotate(-180)"/><rect class="a" x="633.79" y="376" width="3.38" height="3.38" transform="translate(1443.4 511.38) rotate(-180)"/><rect class="a" x="633.79" y="382" width="3.38" height="3.38" transform="translate(1443.4 523.38) rotate(-180)"/><rect class="a" x="633.79" y="388" width="3.38" height="3.38" transform="translate(1443.4 535.38) rotate(-180)"/><rect class="a" x="633.79" y="394" width="3.38" height="3.37" transform="translate(1443.4 547.38) rotate(-180)"/><rect class="a" x="633.79" y="400" width="3.38" height="3.38" transform="translate(1443.4 559.38) rotate(-180)"/><rect class="a" x="633.79" y="406" width="3.38" height="3.38" transform="translate(1443.4 571.38) rotate(-180)"/><rect class="a" x="633.79" y="412" width="3.38" height="3.38" transform="translate(1443.4 583.38) rotate(-180)"/><rect class="a" x="633.79" y="418" width="3.38" height="3.38" transform="translate(1443.4 595.38) rotate(-180)"/><rect class="a" x="633.79" y="424" width="3.38" height="3.38" transform="translate(1443.4 607.38) rotate(-180)"/><rect class="a" x="633.79" y="430" width="3.38" height="3.38" transform="translate(1443.4 619.38) rotate(-180)"/><rect class="a" x="633.79" y="436" width="3.38" height="3.38" transform="translate(1443.4 631.38) rotate(-180)"/><rect class="a" x="633.79" y="442" width="3.38" height="3.38" transform="translate(1443.4 643.38) rotate(-180)"/><rect class="a" x="633.79" y="448" width="3.38" height="3.38" transform="translate(1443.4 655.38) rotate(-180)"/><rect class="a" x="633.79" y="454" width="3.38" height="3.38" transform="translate(1443.4 667.38) rotate(-180)"/><rect class="a" x="633.79" y="460" width="3.38" height="3.38" transform="translate(1443.4 679.38) rotate(-180)"/><rect class="a" x="633.79" y="466" width="3.38" height="3.38" transform="translate(1443.4 691.38) rotate(-180)"/><rect class="a" x="645.73" y="382" width="5.5" height="3.38" transform="translate(1469.4 523.38) rotate(-180)"/><rect class="a" x="653.73" y="382" width="5.5" height="3.38" transform="translate(1485.4 523.38) rotate(-180)"/><rect class="a" x="661.73" y="382" width="5.5" height="3.38" transform="translate(1501.4 523.38) rotate(-180)"/><rect class="a" x="645.73" y="389" width="5.5" height="3.38" transform="translate(1469.4 537.38) rotate(-180)"/><rect class="a" x="653.73" y="389" width="5.5" height="3.38" transform="translate(1485.4 537.38) rotate(-180)"/><rect class="a" x="661.73" y="389" width="5.5" height="3.38" transform="translate(1501.4 537.38) rotate(-180)"/><rect class="a" x="645.73" y="396" width="5.5" height="3.37" transform="translate(1469.4 551.38) rotate(-180)"/><rect class="a" x="653.73" y="396" width="5.5" height="3.37" transform="translate(1485.4 551.38) rotate(-180)"/><rect class="a" x="661.73" y="396" width="5.5" height="3.37" transform="translate(1501.4 551.38) rotate(-180)"/><rect class="a" x="645.73" y="403" width="5.5" height="3.38" transform="translate(1469.4 565.38) rotate(-180)"/><rect class="a" x="653.73" y="403" width="5.5" height="3.38" transform="translate(1485.4 565.38) rotate(-180)"/><rect class="a" x="661.73" y="403" width="5.5" height="3.38" transform="translate(1501.4 565.38) rotate(-180)"/><rect class="a" x="645.73" y="410" width="5.5" height="3.38" transform="translate(1469.4 579.38) rotate(-180)"/><rect class="a" x="653.73" y="410" width="5.5" height="3.38" transform="translate(1485.4 579.38) rotate(-180)"/><rect class="a" x="661.73" y="410" width="5.5" height="3.38" transform="translate(1501.4 579.38) rotate(-180)"/><rect class="a" x="645.73" y="417" width="5.5" height="3.38" transform="translate(1469.4 593.38) rotate(-180)"/><rect class="a" x="653.73" y="417" width="5.5" height="3.38" transform="translate(1485.4 593.38) rotate(-180)"/><rect class="a" x="661.73" y="417" width="5.5" height="3.38" transform="translate(1501.4 593.38) rotate(-180)"/><rect class="a" x="645.73" y="424" width="5.5" height="3.38" transform="translate(1469.4 607.38) rotate(-180)"/><rect class="a" x="653.73" y="424" width="5.5" height="3.38" transform="translate(1485.4 607.38) rotate(-180)"/><rect class="a" x="661.73" y="424" width="5.5" height="3.38" transform="translate(1501.4 607.38) rotate(-180)"/><rect class="a" x="645.73" y="431" width="5.5" height="3.38" transform="translate(1469.4 621.38) rotate(-180)"/><rect class="a" x="653.73" y="431" width="5.5" height="3.38" transform="translate(1485.4 621.38) rotate(-180)"/><rect class="a" x="661.73" y="431" width="5.5" height="3.38" transform="translate(1501.4 621.38) rotate(-180)"/><rect class="a" x="645.73" y="438" width="5.5" height="3.38" transform="translate(1469.4 635.38) rotate(-180)"/><rect class="a" x="653.73" y="438" width="5.5" height="3.38" transform="translate(1485.4 635.38) rotate(-180)"/><rect class="a" x="661.73" y="438" width="5.5" height="3.38" transform="translate(1501.4 635.38) rotate(-180)"/><rect class="a" x="645.73" y="445" width="5.5" height="3.38" transform="translate(1469.4 649.38) rotate(-180)"/><rect class="a" x="653.73" y="445" width="5.5" height="3.38" transform="translate(1485.4 649.38) rotate(-180)"/><rect class="a" x="661.73" y="445" width="5.5" height="3.38" transform="translate(1501.4 649.38) rotate(-180)"/><rect class="a" x="645.73" y="452" width="5.5" height="3.38" transform="translate(1469.4 663.38) rotate(-180)"/><rect class="a" x="653.73" y="452" width="5.5" height="3.38" transform="translate(1485.4 663.38) rotate(-180)"/><rect class="a" x="661.73" y="452" width="5.5" height="3.38" transform="translate(1501.4 663.38) rotate(-180)"/><rect class="a" x="645.73" y="459" width="5.5" height="3.38" transform="translate(1469.4 677.38) rotate(-180)"/><rect class="a" x="653.73" y="459" width="5.5" height="3.38" transform="translate(1485.4 677.38) rotate(-180)"/><rect class="a" x="661.73" y="459" width="5.5" height="3.38" transform="translate(1501.4 677.38) rotate(-180)"/><rect class="a" x="645.73" y="466" width="5.5" height="3.38" transform="translate(1469.4 691.38) rotate(-180)"/><rect class="a" x="653.73" y="466" width="5.5" height="3.38" transform="translate(1485.4 691.38) rotate(-180)"/><rect class="a" x="661.73" y="466" width="5.5" height="3.38" transform="translate(1501.4 691.38) rotate(-180)"/><rect class="a" x="818.7" y="99.5" width="9" height="5.87"/><rect class="a" x="830.7" y="99.5" width="9" height="5.87"/><rect class="a" x="818.7" y="108.5" width="9" height="5.87"/><rect class="a" x="830.7" y="108.5" width="9" height="5.87"/><rect class="a" x="818.7" y="117.5" width="9" height="5.87"/><rect class="a" x="830.7" y="117.5" width="9" height="5.87"/><rect class="a" x="818.7" y="126.5" width="9" height="5.87"/><rect class="a" x="830.7" y="126.5" width="9" height="5.87"/><polyline class="a" points="820.92 95 824.7 68.75 824.7 95"/><polyline class="a" points="836.7 95 832.92 68.75 832.92 95"/><polyline class="b" points="242.62 230.9 242.62 149.91 242.62 143.56 242.62 118.5 247.41 118.5 247.78 118.5 247.67 118.11 245.2 109.17 253.12 109.17 253.12 96.83 267.45 96.83 267.45 109.17 275.37 109.17 272.78 118.5 277.95 118.5 277.95 121.17 277.95 143.56 277.95 149.91 277.95 225.63"/><polyline class="b" points="257.95 225.63 257.95 149.91 257.95 143.56 257.95 118.5 248.55 118.5 247.78 118.5 247.78 143.56 247.78 149.91 247.78 225.63"/><line class="a" x1="249.61" y1="123" x2="255.61" y2="123"/><line class="a" x1="249.61" y1="128" x2="255.61" y2="128"/><line class="a" x1="249.61" y1="133" x2="255.61" y2="133"/><line class="a" x1="249.61" y1="138" x2="255.61" y2="138"/><line class="a" x1="249.61" y1="143" x2="255.61" y2="143"/><line class="a" x1="249.61" y1="148" x2="255.61" y2="148"/><line class="a" x1="249.61" y1="153" x2="255.61" y2="153"/><line class="a" x1="249.61" y1="158" x2="255.61" y2="158"/><line class="a" x1="249.61" y1="163" x2="255.61" y2="163"/><line class="a" x1="249.61" y1="168" x2="255.61" y2="168"/><line class="a" x1="249.61" y1="173" x2="255.61" y2="173"/><line class="a" x1="249.61" y1="178" x2="255.61" y2="178"/><line class="a" x1="249.61" y1="183" x2="255.61" y2="183"/><line class="a" x1="249.61" y1="188" x2="255.61" y2="188"/><line class="a" x1="249.61" y1="193" x2="255.61" y2="193"/><line class="a" x1="249.61" y1="198" x2="255.61" y2="198"/><line class="a" x1="249.61" y1="203" x2="255.61" y2="203"/><line class="a" x1="249.61" y1="208" x2="255.61" y2="208"/><line class="a" x1="249.61" y1="213" x2="255.61" y2="213"/><rect class="a" x="250.61" y="111.75" width="4.67" height="4.67"/><polyline class="b" points="262.62 225.63 262.62 149.91 262.62 143.56 262.62 122.11 262.62 118.5 272.78 118.5 272.78 122.04 272.78 143.56 272.78 149.91 272.78 225.63"/><line class="a" x1="270.95" y1="123" x2="264.95" y2="123"/><line class="a" x1="270.95" y1="128" x2="264.95" y2="128"/><line class="a" x1="270.95" y1="133" x2="264.95" y2="133"/><line class="a" x1="270.95" y1="138" x2="264.95" y2="138"/><line class="a" x1="270.95" y1="143" x2="264.95" y2="143"/><line class="a" x1="270.95" y1="148" x2="264.95" y2="148"/><line class="a" x1="270.95" y1="153" x2="264.95" y2="153"/><line class="a" x1="270.95" y1="158" x2="264.95" y2="158"/><line class="a" x1="270.95" y1="163" x2="264.95" y2="163"/><line class="a" x1="270.95" y1="168" x2="264.95" y2="168"/><line class="a" x1="270.95" y1="173" x2="264.95" y2="173"/><line class="a" x1="270.95" y1="178" x2="264.95" y2="178"/><line class="a" x1="270.95" y1="183" x2="264.95" y2="183"/><line class="a" x1="270.95" y1="188" x2="264.95" y2="188"/><line class="a" x1="270.95" y1="193" x2="264.95" y2="193"/><line class="a" x1="270.95" y1="198" x2="264.95" y2="198"/><line class="a" x1="270.95" y1="203" x2="264.95" y2="203"/><line class="a" x1="270.95" y1="208" x2="264.95" y2="208"/><line class="a" x1="270.95" y1="213" x2="264.95" y2="213"/><rect class="a" x="92.83" y="355.75" width="4.67" height="4.67" transform="translate(362.78 472.17) rotate(-180)"/><line class="b" x1="253.11" y1="109.17" x2="267.45" y2="109.17"/><line class="b" x1="257.95" y1="118.5" x2="262.61" y2="118.5"/><line class="a" x1="255.28" y1="101" x2="255.28" y2="106.5"/><line class="a" x1="259.28" y1="101" x2="259.28" y2="106.5"/><line class="a" x1="261.28" y1="101" x2="261.28" y2="106.5"/><line class="a" x1="265.28" y1="101" x2="265.28" y2="106.5"/><line class="b" x1="908.27" y1="220.9" x2="930.45" y2="3.33"/><polyline class="b" points="949.44 189.69 949.44 61.5 949.44 58.75 936.1 58.75"/><polyline class="b" points="924.8 58.75 911.46 58.75 911.46 61.5 911.46 189.69"/><path class="b" d="M758,497.53" transform="translate(172.45 -244)"/><line class="b" x1="952.62" y1="220.9" x2="930.45" y2="3.33"/><line class="a" x1="926.92" y1="64.75" x2="933.95" y2="64.75"/><line class="a" x1="926.07" y1="71.88" x2="934.95" y2="71.88"/><line class="a" x1="924.95" y1="79.88" x2="935.82" y2="79.88"/><line class="a" x1="923.82" y1="87.63" x2="936.95" y2="87.63"/><line class="a" x1="922.95" y1="95.38" x2="938.2" y2="95.38"/><line class="a" x1="921.95" y1="103.13" x2="938.95" y2="103.13"/><line class="a" x1="921.2" y1="111.17" x2="939.57" y2="111.17"/><line class="a" x1="920.32" y1="118.75" x2="940.32" y2="118.75"/><line class="a" x1="919.46" y1="126.75" x2="941.44" y2="126.75"/><line class="a" x1="918.95" y1="134.63" x2="941.95" y2="134.63"/><line class="a" x1="918.07" y1="142.25" x2="942.57" y2="142.25"/><line class="a" x1="917.45" y1="150.13" x2="943.45" y2="150.13"/><line class="a" x1="916.7" y1="157.69" x2="944.2" y2="157.69"/><line class="a" x1="915.57" y1="165.69" x2="944.82" y2="165.69"/><line class="a" x1="914.82" y1="173.38" x2="945.57" y2="173.38"/><line class="a" x1="913.95" y1="181" x2="946.57" y2="181"/><line class="a" x1="912.88" y1="189.69" x2="947.57" y2="189.69"/><line class="a" x1="912.2" y1="196.63" x2="948.2" y2="196.63"/><line class="a" x1="911.45" y1="204.38" x2="948.95" y2="204.38"/><line class="a" x1="911.05" y1="212" x2="949.44" y2="212"/><polyline class="b" points="576.4 205.69 576.4 153.15 576.4 145.69 603.76 145.69 603.76 210.9"/><line class="a" x1="603.76" y1="153.27" x2="576.4" y2="153.27"/><line class="a" x1="603.76" y1="160.49" x2="576.4" y2="160.49"/><line class="a" x1="603.76" y1="167.72" x2="576.4" y2="167.72"/><line class="a" x1="603.76" y1="174.94" x2="576.4" y2="174.94"/><line class="a" x1="603.76" y1="182.16" x2="576.4" y2="182.16"/><line class="a" x1="603.76" y1="189.39" x2="576.4" y2="189.39"/><line class="a" x1="603.76" y1="196.61" x2="576.4" y2="196.61"/><line class="a" x1="603.76" y1="203.83" x2="576.4" y2="203.83"/><line class="a" x1="580.88" y1="153.27" x2="580.88" y2="160.49"/><line class="a" x1="588.25" y1="153.27" x2="588.25" y2="160.49"/><line class="a" x1="588.11" y1="167.72" x2="588.11" y2="174.94"/><line class="a" x1="595.48" y1="167.72" x2="595.48" y2="174.94"/><line class="a" x1="591.72" y1="182.16" x2="591.72" y2="189.39"/><line class="a" x1="599.09" y1="182.16" x2="599.09" y2="189.39"/><line class="a" x1="584.49" y1="196.61" x2="584.49" y2="203.83"/><line class="a" x1="591.87" y1="196.61" x2="591.87" y2="203.83"/><polyline class="b" points="161.24 230.9 161.24 176 144.2 158.33 126.28 176 126.28 187.38 126.28 190.14 126.28 192.03 126.28 195.68 126.28 196.94 126.28 198.35 126.28 230.9"/><line class="a" x1="161.24" y1="176" x2="126.28" y2="176"/><path class="a" d="M-16.82,417.17" transform="translate(172.45 -244)"/><path class="a" d="M-28.39,405.17" transform="translate(172.45 -244)"/><path class="a" d="M-28.39,405.17" transform="translate(172.45 -244)"/><path class="a" d="M-40.56,417.17" transform="translate(172.45 -244)"/><path class="a" d="M-40.56,417.17" transform="translate(172.45 -244)"/><path class="a" d="M-16.82,417.17" transform="translate(172.45 -244)"/><polyline class="a" points="158.07 176 143.81 161.74 129.47 176.09"/><line class="a" x1="131.44" y1="174.12" x2="156.19" y2="174.12"/><rect class="a" x="140.51" y="167.56" width="7.12" height="4.88"/><rect class="a" x="133.11" y="181.75" width="5.17" height="11.17"/><line class="a" x1="133.11" y1="187.33" x2="138.28" y2="187.33"/><rect class="a" x="143.11" y="181.75" width="15.17" height="11.17"/><line class="a" x1="146.53" y1="181.75" x2="146.53" y2="192.92"/><line class="a" x1="154.53" y1="181.75" x2="154.53" y2="192.92"/><rect class="a" x="143.11" y="198.75" width="15.17" height="11.17"/><line class="a" x1="146.53" y1="198.75" x2="146.53" y2="209.92"/><line class="a" x1="154.53" y1="198.75" x2="154.53" y2="209.92"/><rect class="a" x="143.11" y="215.75" width="15.17" height="11.17"/><line class="a" x1="146.53" y1="215.75" x2="146.53" y2="226.92"/><line class="a" x1="154.53" y1="215.75" x2="154.53" y2="226.92"/><path class="a" d="M-33.25,474.9V448.33s0.54-4.44-4.44-4.44" transform="translate(172.45 -244)"/><path class="a" d="M-41.67,474.9V448.33s-0.54-4.44,4.44-4.44" transform="translate(172.45 -244)"/><line class="a" x1="130.76" y1="228.63" x2="139.21" y2="228.63"/><line class="a" x1="130.76" y1="226.63" x2="139.21" y2="226.63"/><line class="a" x1="130.76" y1="224.63" x2="139.21" y2="224.63"/><line class="a" x1="130.76" y1="222.63" x2="139.21" y2="222.63"/><line class="a" x1="130.76" y1="220.63" x2="139.21" y2="220.63"/><line class="a" x1="130.76" y1="218.63" x2="139.21" y2="218.63"/><line class="a" x1="130.76" y1="216.63" x2="139.21" y2="216.63"/><line class="a" x1="130.76" y1="214.63" x2="139.21" y2="214.63"/><line class="a" x1="137.38" y1="209.13" x2="137.38" y2="210.63"/><polyline class="a" points="151 165.38 151 161.44 149.13 161.44 149.13 163.41"/><line class="a" x1="144.2" y1="158.33" x2="144.2" y2="154.75"/><polyline class="b" points="121.42 230.83 121.42 165.94 117.94 162.33 111.58 155.74 101.28 145.06 80.1 165.94 80.1 230.83"/><polyline class="a" points="80.1 165.94 83.97 165.94 111.58 165.94 117.68 165.94 117.94 165.94 121.42 165.94"/><path class="a" d="M-57.66,406.59" transform="translate(172.45 -244)"/><path class="a" d="M-71.34,392.41" transform="translate(172.45 -244)"/><path class="a" d="M-71.34,392.41" transform="translate(172.45 -244)"/><path class="a" d="M-85.72,406.59" transform="translate(172.45 -244)"/><path class="a" d="M-85.72,406.59" transform="translate(172.45 -244)"/><path class="a" d="M-57.66,406.59" transform="translate(172.45 -244)"/><polyline class="a" points="83.87 166.04 83.97 165.94 86.2 163.71 100.83 149.09 111.58 159.84 115.45 163.71 117.68 165.94"/><polyline class="a" points="86.2 163.71 111.58 163.71 115.45 163.71"/><rect class="a" x="96.92" y="155.97" width="8.42" height="5.76"/><rect class="a" x="88.18" y="172.74" width="6.11" height="13.2"/><line class="a" x1="88.18" y1="179.33" x2="94.28" y2="179.33"/><rect class="a" x="99.99" y="172.74" width="17.93" height="13.2"/><line class="a" x1="104.03" y1="172.74" x2="104.03" y2="185.93"/><line class="a" x1="113.49" y1="172.74" x2="113.49" y2="185.93"/><path class="a" d="M-77.08,474.83v-31.4s0.64-5.25-5.25-5.25" transform="translate(172.45 -244)"/><path class="a" d="M-87,474.83v-31.4s-0.64-5.25,5.25-5.25" transform="translate(172.45 -244)"/><line class="a" x1="85.39" y1="228.14" x2="95.39" y2="228.14"/><line class="a" x1="85.39" y1="225.77" x2="95.39" y2="225.77"/><line class="a" x1="85.39" y1="223.41" x2="95.39" y2="223.41"/><line class="a" x1="85.39" y1="221.04" x2="95.39" y2="221.04"/><line class="a" x1="85.39" y1="218.68" x2="95.39" y2="218.68"/><line class="a" x1="85.39" y1="216.32" x2="95.39" y2="216.32"/><line class="a" x1="85.39" y1="213.95" x2="95.39" y2="213.95"/><line class="a" x1="85.39" y1="211.59" x2="95.39" y2="211.59"/><polyline class="a" points="109.31 153.39 109.31 148.73 107.11 148.73 107.11 151.06"/><line class="a" x1="101.28" y1="145.06" x2="101.28" y2="140.83"/><rect class="a" x="100.18" y="192.74" width="6.11" height="13.2"/><line class="a" x1="100.18" y1="199.33" x2="106.28" y2="199.33"/><rect class="a" x="112.18" y="192.74" width="6.11" height="13.2"/><line class="a" x1="112.18" y1="199.33" x2="118.28" y2="199.33"/><circle class="a" cx="90.2" cy="201.8" r="3.47"/><rect class="a" x="100.18" y="212.74" width="6.11" height="13.2"/><line class="a" x1="100.18" y1="219.33" x2="106.28" y2="219.33"/><rect class="a" x="112.18" y="212.74" width="6.11" height="13.2"/><line class="a" x1="112.18" y1="219.33" x2="118.28" y2="219.33"/><polyline class="b" points="192.42 230.83 192.42 165.94 185.64 158.91 180.32 153.39 172.28 145.06 151.1 165.94"/><path class="a" d="M218.65,454.83" transform="translate(172.45 -244)"/><polyline class="a" points="151.1 165.94 154.97 165.94 188.68 165.94 192.42 165.94"/><path class="a" d="M13.34,406.59" transform="translate(172.45 -244)"/><path class="a" d="M-0.34,392.41" transform="translate(172.45 -244)"/><path class="a" d="M-0.34,392.41" transform="translate(172.45 -244)"/><path class="a" d="M-14.72,406.59" transform="translate(172.45 -244)"/><path class="a" d="M-14.72,406.59" transform="translate(172.45 -244)"/><path class="a" d="M13.34,406.59" transform="translate(172.45 -244)"/><polyline class="a" points="154.87 166.04 154.97 165.94 157.2 163.71 171.83 149.09 186.45 163.71 188.68 165.94"/><line class="a" x1="157.2" y1="163.71" x2="186.45" y2="163.71"/><rect class="a" x="167.92" y="155.97" width="8.42" height="5.76"/><rect class="a" x="170.99" y="172.74" width="17.93" height="13.2"/><line class="a" x1="175.03" y1="172.74" x2="175.03" y2="185.93"/><line class="a" x1="184.49" y1="172.74" x2="184.49" y2="185.93"/><polyline class="a" points="180.31 153.39 180.31 148.73 178.11 148.73 178.11 151.06"/><rect class="a" x="171.18" y="192.74" width="6.11" height="13.2"/><line class="a" x1="171.18" y1="199.33" x2="177.28" y2="199.33"/><rect class="a" x="183.18" y="192.74" width="6.11" height="13.2"/><line class="a" x1="183.18" y1="199.33" x2="189.28" y2="199.33"/><rect class="a" x="171.18" y="212.74" width="6.11" height="13.2"/><line class="a" x1="171.18" y1="219.33" x2="177.28" y2="219.33"/><rect class="a" x="183.18" y="212.74" width="6.11" height="13.2"/><line class="a" x1="183.18" y1="219.33" x2="189.28" y2="219.33"/><polyline class="b" points="237.24 230.9 237.24 176 220.2 158.33 204.44 173.87 202.68 175.61 202.28 176 202.28 181.12 202.28 183 202.28 230.9"/><line class="a" x1="237.24" y1="176" x2="202.28" y2="176"/><path class="a" d="M59.18,417.17" transform="translate(172.45 -244)"/><path class="a" d="M47.61,405.17" transform="translate(172.45 -244)"/><path class="a" d="M47.61,405.17" transform="translate(172.45 -244)"/><path class="a" d="M35.44,417.17" transform="translate(172.45 -244)"/><path class="a" d="M35.44,417.17" transform="translate(172.45 -244)"/><path class="a" d="M59.18,417.17" transform="translate(172.45 -244)"/><polyline class="a" points="205.47 176.09 213.31 168.25 219.67 161.89 219.82 161.74 234.07 176"/><line class="a" x1="207.44" y1="174.12" x2="232.19" y2="174.12"/><rect class="a" x="216.51" y="167.56" width="7.13" height="4.88"/><rect class="a" x="209.11" y="181.75" width="5.17" height="11.17"/><line class="a" x1="209.11" y1="187.33" x2="214.28" y2="187.33"/><rect class="a" x="219.11" y="181.75" width="15.17" height="11.17"/><line class="a" x1="222.53" y1="181.75" x2="222.53" y2="192.92"/><line class="a" x1="230.53" y1="181.75" x2="230.53" y2="192.92"/><rect class="a" x="219.11" y="198.75" width="15.17" height="11.17"/><line class="a" x1="222.53" y1="198.75" x2="222.53" y2="209.92"/><line class="a" x1="230.53" y1="198.75" x2="230.53" y2="209.92"/><rect class="a" x="219.11" y="215.75" width="15.17" height="11.17"/><line class="a" x1="222.53" y1="215.75" x2="222.53" y2="226.92"/><line class="a" x1="230.53" y1="215.75" x2="230.53" y2="226.92"/><path class="a" d="M42.75,474.9V448.33s0.54-4.44-4.44-4.44" transform="translate(172.45 -244)"/><path class="a" d="M34.33,474.9V448.33s-0.54-4.44,4.44-4.44" transform="translate(172.45 -244)"/><line class="a" x1="206.76" y1="228.63" x2="215.21" y2="228.63"/><line class="a" x1="206.76" y1="226.63" x2="215.21" y2="226.63"/><line class="a" x1="206.76" y1="224.63" x2="215.21" y2="224.63"/><line class="a" x1="206.76" y1="222.63" x2="215.21" y2="222.63"/><line class="a" x1="206.76" y1="220.63" x2="215.21" y2="220.63"/><line class="a" x1="206.76" y1="218.63" x2="215.21" y2="218.63"/><line class="a" x1="206.76" y1="216.63" x2="215.21" y2="216.63"/><line class="a" x1="206.76" y1="214.63" x2="215.21" y2="214.63"/><line class="a" x1="213.38" y1="209.13" x2="213.38" y2="210.63"/><polyline class="a" points="227 165.38 227 161.44 225.13 161.44 225.13 163.41"/><path class="a" d="M35.18,424.17" transform="translate(172.45 -244)"/><path class="a" d="M11.44,424.17" transform="translate(172.45 -244)"/><path class="a" d="M11.44,424.17" transform="translate(172.45 -244)"/><path class="a" d="M35.18,424.17" transform="translate(172.45 -244)"/><path class="a" d="M-39.79,440.23" transform="translate(172.45 -244)"/><path class="a" d="M-48.47,431.23" transform="translate(172.45 -244)"/><path class="a" d="M-48.47,431.23" transform="translate(172.45 -244)"/><path class="a" d="M-57.59,440.23" transform="translate(172.45 -244)"/><path class="a" d="M-57.59,440.23" transform="translate(172.45 -244)"/><path class="a" d="M-39.79,440.23" transform="translate(172.45 -244)"/><polygon class="b" points="117.94 73.15 117.94 162.33 111.58 155.74 111.58 73.15 117.94 73.15"/><path class="a" d="M40.86,387.56" transform="translate(172.45 -244)"/><path class="b" d="M-54.51,318.67A47.69,47.69,0,0,0-6.83,366.35a47.68,47.68,0,0,0,47.69-47.69" transform="translate(172.45 -244)"/><polyline class="a" points="116.77 73.14 116.77 70.83 112.66 70.83 112.66 73.14"/><line class="b" x1="213.31" y1="149.91" x2="180.32" y2="149.91"/><polyline class="b" points="117.94 149.91 124.87 149.91 131.81 149.91 138.75 149.91 145.68 149.91 152.62 149.91 167.36 149.91"/><line class="b" x1="178.12" y1="149.91" x2="176.96" y2="149.91"/><polyline class="b" points="117.93 143.56 124.87 143.56 131.81 143.56 138.74 143.56 145.68 143.56 152.61 143.56 213.31 143.56"/><line class="a" x1="124.87" y1="143.56" x2="124.87" y2="99.45"/><line class="a" x1="131.81" y1="143.56" x2="131.81" y2="108.29"/><line class="a" x1="138.74" y1="143.56" x2="138.74" y2="114.05"/><line class="a" x1="145.68" y1="143.56" x2="145.68" y2="117.98"/><line class="a" x1="152.61" y1="143.56" x2="152.61" y2="120.53"/><line class="a" x1="159.55" y1="143.56" x2="159.55" y2="121.95"/><line class="a" x1="166.49" y1="143.56" x2="166.49" y2="122.34"/><line class="a" x1="173.42" y1="143.56" x2="173.42" y2="121.69"/><line class="a" x1="180.36" y1="143.56" x2="180.36" y2="120.01"/><line class="a" x1="187.3" y1="143.56" x2="187.3" y2="117.13"/><line class="a" x1="194.23" y1="143.56" x2="194.23" y2="112.83"/><line class="a" x1="201.17" y1="143.56" x2="201.17" y2="106.45"/><line class="a" x1="208.11" y1="143.56" x2="208.11" y2="96.32"/><polyline class="b" points="213.31 165.12 213.31 73.15 219.67 73.15 219.67 158.85"/><line class="a" x1="219.67" y1="161.89" x2="213.31" y2="168.25"/><polyline class="a" points="219.67 167.56 216.51 167.56 216.51 170.83"/><path class="a" d="M382.59,367.56" transform="translate(172.45 -244)"/><path class="a" d="M377.44,320.25l-0.05.09" transform="translate(172.45 -244)"/><path class="a" d="M370.45,330.45l0,0.05" transform="translate(172.45 -244)"/><path class="b" d="M75.22,362.11L75,362a47.69,47.69,0,0,1-27.74-43.32" transform="translate(172.45 -244)"/><polyline class="a" points="218.5 73.14 218.5 70.83 214.39 70.83 214.39 73.14"/><polyline class="b" points="219.67 149.91 226.6 149.91 233.54 149.91 240.47 149.91 242.62 149.91"/><polyline class="b" points="219.67 143.56 226.6 143.56 233.54 143.56 240.47 143.56 242.62 143.56"/><line class="a" x1="226.6" y1="143.56" x2="226.6" y2="99.45"/><line class="a" x1="233.53" y1="143.56" x2="233.53" y2="108.29"/><line class="a" x1="240.47" y1="143.56" x2="240.47" y2="114.05"/><line class="a" x1="247.41" y1="117.99" x2="247.41" y2="117.98"/><line class="a" x1="261.28" y1="121.97" x2="261.28" y2="121.95"/><line class="a" x1="542.9" y1="86.5" x2="542.9" y2="86.45"/><line class="a" x1="549.84" y1="76.34" x2="549.84" y2="76.32"/><path class="a" d="M-60.87,387.56" transform="translate(172.45 -244)"/><line class="a" x1="78.64" y1="120.03" x2="78.64" y2="120.01"/><polyline class="b" points="586.61 145.69 586.61 107.69 560.95 107.69"/><rect class="a" x="394.73" y="362" width="5.5" height="3.38" transform="translate(967.4 483.38) rotate(-180)"/><rect class="a" x="405.73" y="362" width="5.5" height="3.38" transform="translate(989.4 483.38) rotate(-180)"/><rect class="a" x="394.73" y="356" width="5.5" height="3.38" transform="translate(967.4 471.38) rotate(-180)"/><rect class="a" x="405.73" y="356" width="5.5" height="3.38" transform="translate(989.4 471.38) rotate(-180)"/><rect class="a" x="394.73" y="378" width="5.5" height="3.38" transform="translate(967.4 515.38) rotate(-180)"/><rect class="a" x="405.73" y="378" width="5.5" height="3.38" transform="translate(989.4 515.38) rotate(-180)"/><rect class="a" x="394.73" y="372" width="5.5" height="3.38" transform="translate(967.4 503.38) rotate(-180)"/><rect class="a" x="405.73" y="372" width="5.5" height="3.38" transform="translate(989.4 503.38) rotate(-180)"/><rect class="a" x="394.73" y="396" width="5.5" height="3.37" transform="translate(967.4 551.38) rotate(-180)"/><rect class="a" x="394.73" y="390" width="5.5" height="3.38" transform="translate(967.4 539.38) rotate(-180)"/><rect class="a" x="394.73" y="412" width="5.5" height="3.38" transform="translate(967.4 583.38) rotate(-180)"/><rect class="a" x="394.73" y="406" width="5.5" height="3.38" transform="translate(967.4 571.38) rotate(-180)"/><rect class="a" x="394.73" y="428" width="5.5" height="3.38" transform="translate(967.4 615.38) rotate(-180)"/><rect class="a" x="394.73" y="422" width="5.5" height="3.38" transform="translate(967.4 603.38) rotate(-180)"/><rect class="a" x="394.73" y="444" width="5.5" height="3.38" transform="translate(967.4 647.38) rotate(-180)"/><rect class="a" x="394.73" y="438" width="5.5" height="3.38" transform="translate(967.4 635.38) rotate(-180)"/><line class="a" x1="911.45" y1="61.5" x2="924.52" y2="61.5"/><line class="a" x1="936.37" y1="61.5" x2="949.44" y2="61.5"/><polyline class="b" points="968.47 220.38 968.47 181 949.44 181"/><polyline class="b" points="959.05 181 959.05 152.95 949.44 152.95"/><line class="a" x1="956.82" y1="155.38" x2="951.95" y2="155.38"/><line class="a" x1="956.82" y1="158.38" x2="951.95" y2="158.38"/><line class="a" x1="956.82" y1="161.38" x2="951.95" y2="161.38"/><line class="a" x1="956.82" y1="164.38" x2="951.95" y2="164.38"/><line class="a" x1="956.82" y1="169.38" x2="951.95" y2="169.38"/><line class="a" x1="956.82" y1="172.38" x2="951.95" y2="172.38"/><line class="a" x1="956.82" y1="175.38" x2="951.95" y2="175.38"/><line class="a" x1="956.82" y1="178.38" x2="951.95" y2="178.38"/><polyline class="a" points="965.97 181 965.97 178.38 962.32 178.38 962.32 181"/><polyline class="a" points="958.95 220.9 958.95 207.69 951.27 207.69"/><rect class="a" x="962.32" y="184.75" width="3.56" height="13.13"/><rect class="a" x="962.32" y="201.75" width="3.56" height="13.13"/><rect class="a" x="955.32" y="184.75" width="3.56" height="13.13"/><polyline class="a" points="581.82 107.69 581.82 105 560.95 105"/><line class="a" x1="507.7" y1="222.75" x2="514.82" y2="205.93"/><line class="a" x1="580.92" y1="222.75" x2="573.78" y2="205.38"/><line class="a" x1="544.45" y1="222.75" x2="544.45" y2="205.38"/><path class="a" d="M342.48,481.83h9.22s1-10-4.61-10S342.48,481.83,342.48,481.83Z" transform="translate(172.45 -244)"/><path class="a" d="M367.31,481.83h9.22s1-10-4.61-10S367.31,481.83,367.31,481.83Z" transform="translate(172.45 -244)"/><path class="a" d="M391.31,481.83h9.22s1-10-4.61-10S391.31,481.83,391.31,481.83Z" transform="translate(172.45 -244)"/><rect class="a" x="915.32" y="64" width="3.38" height="3.38"/><rect class="a" x="915.32" y="70" width="3.38" height="3.38"/><rect class="a" x="942.32" y="64" width="3.38" height="3.38"/><rect class="a" x="942.32" y="70" width="3.38" height="3.38"/><rect class="a" x="915.32" y="76" width="3.38" height="3.38"/><rect class="a" x="915.32" y="82" width="3.38" height="3.38"/><rect class="a" x="942.32" y="76" width="3.38" height="3.38"/><rect class="a" x="942.32" y="82" width="3.38" height="3.38"/><line class="a" x1="310.78" y1="247.33" x2="0.39" y2="247.33"/><line class="a" x1="776.92" y1="247.33" x2="1101.71" y2="247.33"/><line class="a" x1="483.95" y1="253.25" x2="0.4" y2="253.67"/><polyline class="a" points="1101.71 140.22 1101.71 145.5 1101.71 149.5 1101.71 155.5 1101.71 159.5 1101.71 253.67 603.95 253.25"/><line class="b" x1="1031.95" y1="231.33" x2="776.93" y2="231.33"/><polyline class="b" points="978.78 231.33 978.78 220.9 879.45 220.9 879.45 231.33"/><polyline class="b" points="310.78 231.33 68.45 231.33 68.45 238 0.4 238"/><line class="a" x1="249.61" y1="218" x2="255.61" y2="218"/><line class="a" x1="249.61" y1="223" x2="255.61" y2="223"/><line class="a" x1="270.95" y1="218" x2="264.95" y2="218"/><line class="a" x1="270.95" y1="223" x2="264.95" y2="223"/><polyline class="a" points="242.62 225.63 283.07 225.63 283.07 231.33"/><line class="b" x1="45.28" y1="123.4" x2="45.28" y2="123.39"/><path class="a" d="M-113.75,415.68a8.8,8.8,0,0,0,.17-1.72,8.67,8.67,0,0,0-.23-2,8.78,8.78,0,0,0-8.56-6.8,6,6,0,0,0-.85.05,7.23,7.23,0,0,0-2.15-4.32,7.33,7.33,0,0,0-5.21-2.15,7.41,7.41,0,0,0-3.29.77h0a7.48,7.48,0,0,0-3.27,3.15" transform="translate(172.45 -244)"/><path class="a" d="M-147.19,451.1a8.44,8.44,0,0,0,1-4,8.47,8.47,0,0,0-5.65-8,13.7,13.7,0,0,0,.45-3.47A13.64,13.64,0,0,0-165,422a13.51,13.51,0,0,0-7,1.95" transform="translate(172.45 -244)"/><path class="a" d="M-108.58,446.13V446a8.71,8.71,0,0,0-8.71-8.71,8.7,8.7,0,0,0-8.62,7.5" transform="translate(172.45 -244)"/><path class="a" d="M-130.58,476.13V476a8.71,8.71,0,0,0-8.71-8.71,8.7,8.7,0,0,0-8.62,7.5" transform="translate(172.45 -244)"/><line class="a" x1="38.58" y1="155.53" x2="38.58" y2="155.52"/><path class="b" d="M-172,346.28a3.86,3.86,0,0,1,.49-0.06,8.49,8.49,0,0,1,.88-0.05,8.47,8.47,0,0,1,8.08,5.94,8.11,8.11,0,0,1,.28,1.13c0.6-.05,1.21-0.07,1.83-0.07a24.79,24.79,0,0,1,4.25.36,24.79,24.79,0,0,1,6.93,2.3,24.59,24.59,0,0,1,4.88,3.23c0.7,0.05,1.38.13,2.06,0.24a26,26,0,0,1,6.93,2.09,25.88,25.88,0,0,1,6.94,4.67c0.46,0.43.9,0.87,1.33,1.33h0a25.49,25.49,0,0,1,3.81,5.29c0.61,0.3,1.21.62,1.8,1a27,27,0,0,1,2.48,1.61,7.27,7.27,0,0,1,2.69-.5,7.25,7.25,0,0,1,1.76.21,7.62,7.62,0,0,1,5.82,6.61c0.39,0.33.76,0.68,1.12,1.05a16.94,16.94,0,0,1,3.22,4.65,18.27,18.27,0,0,1,1.72,6.35c0,0.56.08,1.13,0.08,1.7,0,0.3,0,.6,0,0.89h0a8.79,8.79,0,0,1,6.79,8.56c0,0.32,0,.63,0,0.94a28.74,28.74,0,0,1,3.83,4" transform="translate(172.45 -244)"/><path class="b" d="M35.31,414.6q0-.32-0.12-0.63a8.78,8.78,0,0,0-8.56-6.8,6,6,0,0,0-.85.05,7.23,7.23,0,0,0-2.15-4.32,7.33,7.33,0,0,0-5.21-2.15,7.41,7.41,0,0,0-3.29.77h0a7.37,7.37,0,0,0-1.94,1.38" transform="translate(172.45 -244)"/><line class="b" x1="187.58" y1="157.53" x2="187.58" y2="157.52"/><path class="b" d="M-51,414.56a6.85,6.85,0,0,1,5.19-2.36,6.89,6.89,0,0,1,5.19,2.36" transform="translate(172.45 -244)"/><path class="b" d="M60.45,415.5a6.9,6.9,0,0,1,9.72-4.61" transform="translate(172.45 -244)"/><path class="a" d="M20,438.42a8.47,8.47,0,0,1,4.89,7.68,1.77,1.77,0,0,1,0,.23" transform="translate(172.45 -244)"/><path class="a" d="M-162.6,387.29" transform="translate(172.45 -244)"/><path class="a" d="M-162.6,318.39a47.45,47.45,0,0,1-9,27.83l-0.49.66" transform="translate(172.45 -244)"/><path class="a" d="M-162.6,393.64" transform="translate(172.45 -244)"/><path class="a" d="M-162.6,387.29" transform="translate(172.45 -244)"/><path class="a" d="M-156.24,316.87v36.66a24.79,24.79,0,0,0-4.25-.36c-0.62,0-1.23,0-1.83.07a8.11,8.11,0,0,0-.28-1.13V316.87h6.36Z" transform="translate(172.45 -244)"/><path class="a" d="M-60.87,387.29" transform="translate(172.45 -244)"/><path class="a" d="M-156.25,318.39a47.69,47.69,0,0,0,47.69,47.69,47.68,47.68,0,0,0,47.69-47.69" transform="translate(172.45 -244)"/><polyline class="a" points="15.04 72.87 15.04 70.56 10.93 70.56 10.93 72.87"/><line class="a" x1="96.63" y1="149.64" x2="69.7" y2="149.64"/><line class="a" x1="111.58" y1="149.64" x2="109.32" y2="149.64"/><polyline class="a" points="111.58 143.29 71.7 143.29 67.98 143.29"/><line class="a" x1="23.14" y1="111.83" x2="23.14" y2="99.17"/><line class="a" x1="30.08" y1="115.3" x2="30.08" y2="108.02"/><polyline class="a" points="37.01 113.77 37.01 113.78 37.01 117.39"/><polyline class="a" points="43.95 122.06 43.95 117.72 43.95 117.71"/><polyline class="a" points="50.89 120.26 50.89 120.28 50.89 129.66"/><polyline class="a" points="57.82 121.68 57.82 121.7 57.82 130.98"/><polyline class="a" points="64.76 138.64 64.76 122.07 64.76 122.06"/><line class="a" x1="71.69" y1="143.29" x2="71.69" y2="121.42"/><line class="a" x1="78.63" y1="143.29" x2="78.63" y2="119.74"/><line class="a" x1="85.56" y1="143.29" x2="85.56" y2="116.86"/><line class="a" x1="92.5" y1="143.29" x2="92.5" y2="112.56"/><line class="a" x1="99.44" y1="143.29" x2="99.44" y2="106.18"/><line class="a" x1="106.37" y1="143.29" x2="106.37" y2="96.05"/><path class="a" d="M-161,376.89a6.93,6.93,0,0,1,3-.69,6.9,6.9,0,0,1,6.71,5.3" transform="translate(172.45 -244)"/><polyline class="b" points="334.45 210.9 334.45 159.5 415.95 159.5 415.95 210.9"/><polyline class="b" points="415.65 179.34 478.45 179.34 478.45 210.63"/><path class="b" d="M306,423.33" transform="translate(172.45 -244)"/><path class="b" d="M306,403.5" transform="translate(172.45 -244)"/><path class="b" d="M351.38,404.86" transform="translate(172.45 -244)"/><polyline class="b" points="478.45 179.34 478.45 159.5 523.83 159.5"/><polyline class="b" points="425.24 179.34 425.24 69.88 468.82 69.88 468.82 179.34"/><polyline class="b" points="406.24 158.97 406.24 82.75 360.82 82.38 360.82 160.12"/><polyline class="b" points="495.11 159.5 495.11 103.38 468.82 103.38"/><line class="b" x1="425.24" y1="124.6" x2="406.24" y2="124.6"/><polyline class="b" points="277.95 127.69 305.45 127.69 305.45 198.75 277.95 198.75"/><line class="b" x1="305.45" y1="198.75" x2="334.45" y2="198.75"/><line class="b" x1="305.45" y1="136.33" x2="360.82" y2="136.33"/><polyline class="b" points="686.47 210.62 686.47 184.75 686.47 183.69 686.47 179.69 686.47 175.5 686.47 171.33 681.45 171.33 673.45 171.33 665.45 171.33 603.76 171.33"/><polyline class="b" points="686.47 184.75 758.47 184.75 758.47 210.9"/><line class="b" x1="758.47" y1="197.17" x2="801.88" y2="197.17"/><polyline class="b" points="732.05 184.75 732.05 135.38 780.17 135.38 780.17 197.17"/><polyline class="b" points="660.89 164.32 660.89 135.38 713.06 135.38 713.06 184.75"/><polyline class="b" points="889.11 220.9 889.11 174.69 889.11 159.38 911.05 159.38"/><path class="b" d="M683.61,417.38" transform="translate(172.45 -244)"/><line class="b" x1="889.11" y1="176.38" x2="856.05" y2="176.38"/><polyline class="b" points="1101.71 225.38 1058.94 225.38 1031.95 225.38 1031.95 230.9 1031.95 247.33"/><polyline class="b" points="1052.95 225.38 1052.95 178.38 1101.71 178.38"/><line class="b" x1="1052.95" y1="196.61" x2="968.47" y2="196.61"/><polyline class="b" points="988.45 197 988.45 168.35 1031.95 168.35 1031.95 196.67"/><polyline class="b" points="1077.33 178.53 1077.33 140.22 1101.71 140.22"/><line class="b" x1="68.45" y1="238" x2="68.45" y2="247.33"/><path class="a" d="M-93.69,491.33a7.59,7.59,0,0,1,7.58-7.58,7.58,7.58,0,0,1,7.58,7.58" transform="translate(172.45 -244)"/><path class="a" d="M-63.69,491.33a7.59,7.59,0,0,1,7.58-7.58,7.58,7.58,0,0,1,7.58,7.58" transform="translate(172.45 -244)"/><path class="a" d="M-33.69,491.33a7.59,7.59,0,0,1,7.58-7.58,7.58,7.58,0,0,1,7.58,7.58" transform="translate(172.45 -244)"/><path class="a" d="M-3.69,491.33a7.58,7.58,0,1,1,15.16,0" transform="translate(172.45 -244)"/><path class="a" d="M26.31,491.33a7.58,7.58,0,1,1,15.16,0" transform="translate(172.45 -244)"/><path class="a" d="M56.31,491.33a7.58,7.58,0,1,1,15.16,0" transform="translate(172.45 -244)"/><path class="a" d="M86.31,491.33a7.58,7.58,0,0,1,15.16,0" transform="translate(172.45 -244)"/><path class="a" d="M116.31,491.33a7.58,7.58,0,0,1,15.16,0" transform="translate(172.45 -244)"/><path class="a" d="M616.84,491.33a7.58,7.58,0,0,1,15.16,0" transform="translate(172.45 -244)"/><path class="a" d="M646.84,491.33a7.58,7.58,0,0,1,15.16,0" transform="translate(172.45 -244)"/><path class="a" d="M676.84,491.33a7.58,7.58,0,0,1,15.16,0" transform="translate(172.45 -244)"/><path class="a" d="M706.84,491.33a7.58,7.58,0,0,1,15.16,0" transform="translate(172.45 -244)"/><path class="a" d="M736.84,491.33a7.58,7.58,0,0,1,15.16,0" transform="translate(172.45 -244)"/><path class="a" d="M766.84,491.33a7.58,7.58,0,0,1,15.16,0" transform="translate(172.45 -244)"/><path class="a" d="M796.84,491.33a7.58,7.58,0,0,1,15.16,0" transform="translate(172.45 -244)"/><path class="a" d="M826.84,491.33a7.58,7.58,0,0,1,15.16,0" transform="translate(172.45 -244)"/><polyline class="a" points="758.47 135.69 758.47 112.12 683.88 112.12 683.88 134.63"/><rect class="a" x="848.32" y="174" width="3.38" height="3.38"/><polyline class="a" points="316.28 136.33 316.28 131.44 360.82 131.44"/><line class="a" x1="282.28" y1="136.33" x2="282.28" y2="198.75"/><line class="a" x1="299.95" y1="198.75" x2="299.95" y2="136.33"/><rect class="a" x="310.78" y="141.83" width="18" height="6.17"/><rect class="a" x="336.78" y="141.83" width="18" height="6.17"/><rect class="a" x="310.78" y="171.83" width="18" height="6.17"/><rect class="a" x="310.78" y="184.83" width="18" height="6.17"/><line class="a" x1="305.45" y1="153" x2="360.11" y2="153"/><line class="a" x1="319.78" y1="171.83" x2="319.78" y2="178"/><line class="a" x1="319.78" y1="184.83" x2="319.78" y2="191"/><line class="a" x1="305.45" y1="155.88" x2="360.11" y2="155.88"/><line class="a" x1="334.45" y1="168.5" x2="415.65" y2="168.5"/><line class="a" x1="334.45" y1="178.5" x2="415.65" y2="178.5"/><line class="a" x1="334.45" y1="188.5" x2="415.65" y2="188.5"/><line class="a" x1="334.45" y1="198.5" x2="415.65" y2="198.5"/><line class="a" x1="334.45" y1="208.5" x2="415.65" y2="208.5"/><line class="a" x1="345.78" y1="198.5" x2="345.78" y2="208.5"/><line class="a" x1="354.78" y1="198.75" x2="354.78" y2="208"/><line class="a" x1="365.78" y1="188.5" x2="365.78" y2="198.5"/><line class="a" x1="374.78" y1="188.75" x2="374.78" y2="198"/><line class="a" x1="385.78" y1="168.5" x2="385.78" y2="178.5"/><line class="a" x1="394.78" y1="168.75" x2="394.78" y2="178"/><line class="a" x1="395.78" y1="178.5" x2="395.78" y2="188.5"/><line class="a" x1="404.78" y1="178.75" x2="404.78" y2="188"/><line class="a" x1="355.78" y1="159.5" x2="355.78" y2="168.5"/><line class="a" x1="364.78" y1="158.75" x2="364.78" y2="168"/><line class="a" x1="389.78" y1="198.5" x2="389.78" y2="208.5"/><line class="a" x1="398.78" y1="198.75" x2="398.78" y2="208"/><polyline class="a" points="370.61 159.5 370.61 155.33 389.78 155.33 389.78 159.5"/><rect class="a" x="282.28" y="202.5" width="5.29" height="5.29"/><rect class="a" x="292.28" y="202.5" width="5.29" height="5.29"/><rect class="a" x="302.28" y="202.5" width="5.29" height="5.29"/><rect class="a" x="312.28" y="202.5" width="5.29" height="5.29"/><rect class="a" x="322.28" y="202.5" width="5.29" height="5.29"/><polyline class="a" points="287.57 231.33 287.57 223.5 310.78 223.5"/><line class="a" x1="287.57" y1="225.63" x2="310.78" y2="225.63"/><rect class="a" x="282.28" y="212.5" width="5.29" height="5.29"/><rect class="a" x="292.28" y="212.5" width="5.29" height="5.29"/><rect class="a" x="302.28" y="212.5" width="5.29" height="5.29"/><line class="a" x1="296.95" y1="128" x2="296.95" y2="120.01"/><line class="a" x1="293.45" y1="123" x2="293.45" y2="127.83"/><line class="a" x1="461.24" y1="69.88" x2="461.24" y2="179.33"/><line class="a" x1="433.24" y1="69.88" x2="433.24" y2="179.33"/><line class="a" x1="433.24" y1="78.75" x2="461.24" y2="78.75"/><line class="a" x1="433.24" y1="88.75" x2="461.24" y2="88.75"/><line class="a" x1="433.24" y1="98.75" x2="461.24" y2="98.75"/><line class="a" x1="433.24" y1="108.75" x2="461.24" y2="108.75"/><line class="a" x1="433.24" y1="118.75" x2="461.24" y2="118.75"/><line class="a" x1="433.24" y1="128.75" x2="461.24" y2="128.75"/><line class="a" x1="433.24" y1="138.75" x2="461.24" y2="138.75"/><line class="a" x1="433.24" y1="148.75" x2="461.24" y2="148.75"/><line class="a" x1="433.24" y1="158.75" x2="461.24" y2="158.75"/><line class="a" x1="433.24" y1="168.75" x2="461.24" y2="168.75"/><polyline class="a" points="454.95 69.88 454.95 66.67 442.11 66.67 438.51 70.27"/><line class="a" x1="408.82" y1="129.69" x2="422.65" y2="129.69"/><line class="a" x1="408.82" y1="135.69" x2="422.65" y2="135.69"/><line class="a" x1="408.82" y1="141.69" x2="422.65" y2="141.69"/><line class="a" x1="408.82" y1="147.69" x2="422.65" y2="147.69"/><line class="a" x1="408.82" y1="153.69" x2="422.65" y2="153.69"/><line class="a" x1="360.82" y1="94.5" x2="406.24" y2="94.5"/><line class="a" x1="360.82" y1="98.5" x2="406.24" y2="98.5"/><line class="a" x1="360.82" y1="109.5" x2="406.24" y2="109.5"/><line class="a" x1="360.82" y1="113.5" x2="406.24" y2="113.5"/><line class="a" x1="360.82" y1="124.5" x2="406.24" y2="124.5"/><line class="a" x1="360.82" y1="128.5" x2="406.24" y2="128.5"/><line class="a" x1="360.82" y1="139.5" x2="406.24" y2="139.5"/><line class="a" x1="360.82" y1="143.5" x2="406.24" y2="143.5"/><line class="a" x1="399.78" y1="94.5" x2="399.78" y2="98.5"/><line class="a" x1="389.78" y1="94.5" x2="389.78" y2="98.5"/><line class="a" x1="379.78" y1="94.5" x2="379.78" y2="98.5"/><line class="a" x1="369.78" y1="94.5" x2="369.78" y2="98.5"/><line class="a" x1="396.78" y1="109.5" x2="396.78" y2="113.5"/><line class="a" x1="386.78" y1="109.5" x2="386.78" y2="113.5"/><line class="a" x1="376.78" y1="109.5" x2="376.78" y2="113.5"/><line class="a" x1="366.78" y1="109.5" x2="366.78" y2="113.5"/><line class="a" x1="396.78" y1="139.5" x2="396.78" y2="143.5"/><line class="a" x1="386.78" y1="139.5" x2="386.78" y2="143.5"/><line class="a" x1="376.78" y1="139.5" x2="376.78" y2="143.5"/><line class="a" x1="366.78" y1="139.5" x2="366.78" y2="143.5"/><line class="a" x1="399.78" y1="124.5" x2="399.78" y2="128.5"/><line class="a" x1="389.78" y1="124.5" x2="389.78" y2="128.5"/><line class="a" x1="379.78" y1="124.5" x2="379.78" y2="128.5"/><line class="a" x1="369.78" y1="124.5" x2="369.78" y2="128.5"/><line class="a" x1="399.78" y1="82.7" x2="399.78" y2="71.67"/><line class="a" x1="394.78" y1="82.66" x2="394.78" y2="78.17"/><line class="a" x1="487.92" y1="113.38" x2="468.82" y2="113.38"/><line class="a" x1="487.92" y1="123.38" x2="468.82" y2="123.38"/><line class="a" x1="487.92" y1="133.38" x2="468.82" y2="133.38"/><line class="a" x1="487.92" y1="143.38" x2="468.82" y2="143.38"/><line class="a" x1="487.92" y1="153.38" x2="468.82" y2="153.38"/><line class="a" x1="478.45" y1="173.38" x2="468.82" y2="173.38"/><line class="a" x1="478.45" y1="163.38" x2="468.82" y2="163.38"/><line class="a" x1="68.45" y1="234.67" x2="310.78" y2="234.67"/><line class="a" x1="1031.95" y1="235.33" x2="776.93" y2="235.33"/><rect class="a" x="252.73" y="434" width="5.5" height="3.38" transform="translate(683.4 627.38) rotate(-180)"/><rect class="a" x="252.73" y="428" width="5.5" height="3.38" transform="translate(683.4 615.38) rotate(-180)"/><rect class="a" x="272.73" y="434" width="5.5" height="3.38" transform="translate(723.4 627.38) rotate(-180)"/><rect class="a" x="272.73" y="428" width="5.5" height="3.38" transform="translate(723.4 615.38) rotate(-180)"/><rect class="a" x="292.73" y="434" width="5.5" height="3.38" transform="translate(763.4 627.38) rotate(-180)"/><rect class="a" x="292.73" y="428" width="5.5" height="3.38" transform="translate(763.4 615.38) rotate(-180)"/><polyline class="a" points="422.65 210.63 422.65 201.69 471.95 201.69 471.95 210.9"/><line class="a" x1="422.65" y1="205.63" x2="471.95" y2="205.63"/><polyline class="b" points="523.95 168.75 487.92 168.75 487.92 210.9 316.61 210.9 310.78 216.83 484.81 216.83"/><polyline class="a" points="523.83 176 495.11 176 495.11 205.38"/><line class="a" x1="495.11" y1="186" x2="523.83" y2="186"/><line class="a" x1="495.11" y1="196" x2="523.83" y2="196"/><line class="a" x1="501.95" y1="176" x2="501.95" y2="186"/><line class="a" x1="511.95" y1="176" x2="511.95" y2="186"/><line class="a" x1="511.95" y1="196" x2="511.95" y2="206"/><line class="a" x1="501.95" y1="196" x2="501.95" y2="206"/><line class="a" x1="514.85" y1="158.75" x2="514.85" y2="153"/><polyline class="a" points="509.95 159.5 509.95 156.88 495.11 156.88"/><line class="a" x1="475.82" y1="103.38" x2="475.65" y2="98.5"/><polyline class="a" points="603.95 164.32 660.89 164.32 665.45 164.32 666.44 164.32 669.62 167.5 673.45 171.33"/><line class="a" x1="612.05" y1="164.32" x2="612.05" y2="160.07"/><polyline class="a" points="686.98 179.69 686.47 179.69 681.45 179.69 675.28 179.69 673.45 179.69 670.28 179.69 665.45 179.69 660.28 179.69 655.28 179.69 603.76 179.69"/><polyline class="a" points="686.98 183.69 686.47 183.69 681.45 183.69 675.28 183.69 673.45 183.69 670.28 183.69 665.45 183.69 660.28 183.69 655.28 183.69 603.76 183.69"/><line class="a" x1="603.76" y1="189.69" x2="686.97" y2="189.69"/><line class="a" x1="603.76" y1="193.69" x2="686.97" y2="193.69"/><line class="a" x1="603.76" y1="199.69" x2="686.97" y2="199.69"/><line class="a" x1="603.76" y1="203.69" x2="686.97" y2="203.69"/><line class="a" x1="610.28" y1="179.69" x2="610.28" y2="183.69"/><line class="a" x1="615.28" y1="179.69" x2="615.28" y2="183.69"/><line class="a" x1="625.28" y1="179.69" x2="625.28" y2="183.69"/><line class="a" x1="630.28" y1="179.69" x2="630.28" y2="183.69"/><line class="a" x1="640.28" y1="179.69" x2="640.28" y2="183.69"/><line class="a" x1="645.28" y1="179.69" x2="645.28" y2="183.69"/><line class="a" x1="655.28" y1="179.69" x2="655.28" y2="183.69"/><line class="a" x1="660.28" y1="183.69" x2="660.28" y2="179.69"/><line class="a" x1="670.28" y1="179.69" x2="670.28" y2="183.69"/><line class="a" x1="675.28" y1="179.69" x2="675.28" y2="183.69"/><line class="a" x1="610.28" y1="199.69" x2="610.28" y2="203.69"/><line class="a" x1="615.28" y1="199.69" x2="615.28" y2="203.69"/><line class="a" x1="625.28" y1="199.69" x2="625.28" y2="203.69"/><line class="a" x1="630.28" y1="199.69" x2="630.28" y2="203.69"/><line class="a" x1="640.28" y1="199.69" x2="640.28" y2="203.69"/><line class="a" x1="645.28" y1="199.69" x2="645.28" y2="203.69"/><line class="a" x1="655.28" y1="199.69" x2="655.28" y2="203.69"/><line class="a" x1="660.28" y1="199.69" x2="660.28" y2="203.69"/><line class="a" x1="670.28" y1="199.69" x2="670.28" y2="203.69"/><line class="a" x1="675.28" y1="199.69" x2="675.28" y2="203.69"/><line class="a" x1="617.28" y1="189.69" x2="617.28" y2="193.69"/><line class="a" x1="622.28" y1="189.69" x2="622.28" y2="193.69"/><line class="a" x1="632.28" y1="189.69" x2="632.28" y2="193.69"/><line class="a" x1="637.28" y1="189.69" x2="637.28" y2="193.69"/><line class="a" x1="647.28" y1="189.69" x2="647.28" y2="193.69"/><line class="a" x1="652.28" y1="189.69" x2="652.28" y2="193.69"/><line class="a" x1="662.28" y1="189.69" x2="662.28" y2="193.69"/><line class="a" x1="667.28" y1="189.69" x2="667.28" y2="193.69"/><line class="a" x1="677.28" y1="189.69" x2="677.28" y2="193.69"/><line class="a" x1="682.28" y1="189.69" x2="682.28" y2="193.69"/><line class="a" x1="607.28" y1="189.69" x2="607.28" y2="193.69"/><rect class="a" x="547.73" y="439" width="5.5" height="3.38" transform="translate(1273.4 637.38) rotate(-180)"/><rect class="a" x="547.73" y="433" width="5.5" height="3.38" transform="translate(1273.4 625.38) rotate(-180)"/><rect class="a" x="562.73" y="439" width="5.5" height="3.38" transform="translate(1303.4 637.38) rotate(-180)"/><rect class="a" x="562.73" y="433" width="5.5" height="3.38" transform="translate(1303.4 625.38) rotate(-180)"/><rect class="a" x="577.73" y="439" width="5.5" height="3.38" transform="translate(1333.4 637.38) rotate(-180)"/><rect class="a" x="577.73" y="433" width="5.5" height="3.38" transform="translate(1333.4 625.38) rotate(-180)"/><rect class="a" x="532.73" y="439" width="5.5" height="3.38" transform="translate(1243.4 637.38) rotate(-180)"/><rect class="a" x="532.73" y="433" width="5.5" height="3.38" transform="translate(1243.4 625.38) rotate(-180)"/><rect class="a" x="517.73" y="439" width="5.5" height="3.38" transform="translate(1213.4 637.38) rotate(-180)"/><rect class="a" x="517.73" y="433" width="5.5" height="3.38" transform="translate(1213.4 625.38) rotate(-180)"/><line class="a" x1="692.92" y1="203.69" x2="692.92" y2="210.63"/><line class="a" x1="752.92" y1="204" x2="752.92" y2="210.63"/><line class="a" x1="683.88" y1="118.5" x2="758.47" y2="118.5"/><line class="a" x1="683.88" y1="122.5" x2="758.47" y2="122.5"/><line class="a" x1="717.47" y1="139.69" x2="717.47" y2="184.75"/><line class="a" x1="727.47" y1="139.69" x2="727.47" y2="184.75"/><polyline class="a" points="753.6 112.12 748.88 107.4 692.11 107.4 687.6 111.91"/><line class="a" x1="741.95" y1="107.4" x2="741.95" y2="104.33"/><line class="a" x1="660.89" y1="143.5" x2="713.05" y2="143.5"/><line class="a" x1="660.89" y1="151.5" x2="713.05" y2="151.5"/><line class="a" x1="660.89" y1="159.5" x2="713.05" y2="159.5"/><line class="a" x1="713.06" y1="175.5" x2="686.47" y2="175.5"/><line class="a" x1="713.06" y1="167.5" x2="669.62" y2="167.5"/><line class="a" x1="780.18" y1="143.5" x2="732.28" y2="143.5"/><line class="a" x1="780.18" y1="151.5" x2="732.28" y2="151.5"/><line class="a" x1="780.18" y1="159.5" x2="732.28" y2="159.5"/><line class="a" x1="780.18" y1="167.5" x2="732.28" y2="167.5"/><line class="a" x1="780.18" y1="175.5" x2="732.28" y2="175.5"/><line class="a" x1="780.18" y1="192.5" x2="758.47" y2="192.5"/><line class="a" x1="758.47" y1="184.75" x2="780.18" y2="184.75"/><line class="a" x1="705.45" y1="135.69" x2="705.45" y2="184.75"/><line class="a" x1="697.45" y1="135.69" x2="697.45" y2="184.75"/><polyline class="a" points="681.45 171.33 681.45 167.5 681.45 135.69"/><line class="a" x1="689.45" y1="135.69" x2="689.45" y2="184.75"/><line class="a" x1="665.45" y1="164.32" x2="665.45" y2="135.69"/><polyline class="a" points="673.45 171.33 673.45 167.5 673.45 135.69"/><line class="a" x1="740.45" y1="135.69" x2="740.45" y2="184.75"/><line class="a" x1="748.45" y1="135.69" x2="748.45" y2="184.75"/><line class="a" x1="756.45" y1="135.69" x2="756.45" y2="184.75"/><line class="a" x1="764.45" y1="135.69" x2="764.45" y2="197.17"/><line class="a" x1="772.45" y1="135.69" x2="772.45" y2="197.91"/><line class="a" x1="683.88" y1="127.5" x2="758.47" y2="127.5"/><line class="a" x1="683.88" y1="131.5" x2="758.47" y2="131.5"/><line class="a" x1="691.34" y1="118.5" x2="691.34" y2="131.5"/><line class="a" x1="701.34" y1="118.5" x2="701.34" y2="131.5"/><line class="a" x1="711.34" y1="118.5" x2="711.34" y2="131.5"/><line class="a" x1="721.34" y1="118.5" x2="721.34" y2="131.5"/><line class="a" x1="731.34" y1="118.5" x2="731.34" y2="131.5"/><line class="a" x1="741.34" y1="118.5" x2="741.34" y2="131.5"/><line class="a" x1="751.34" y1="118.5" x2="751.34" y2="131.5"/><line class="a" x1="795.78" y1="202.69" x2="795.78" y2="230.9"/><line class="a" x1="764.45" y1="202.69" x2="764.45" y2="210.63"/><polyline class="a" points="787.45 197.17 787.45 192.5 795.78 192.5 795.78 197.17"/><polyline class="a" points="789.29 230.9 789.29 213.38 774.01 213.38"/><line class="a" x1="906.82" y1="164.95" x2="894.07" y2="164.95"/><line class="a" x1="906.82" y1="169.95" x2="894.07" y2="169.95"/><line class="a" x1="906.82" y1="174.95" x2="894.07" y2="174.95"/><line class="a" x1="906.82" y1="179.95" x2="894.07" y2="179.95"/><line class="a" x1="906.82" y1="184.95" x2="894.07" y2="184.95"/><line class="a" x1="906.82" y1="189.95" x2="894.07" y2="189.95"/><line class="a" x1="906.82" y1="194.95" x2="894.07" y2="194.95"/><line class="a" x1="906.82" y1="199.95" x2="894.07" y2="199.95"/><line class="a" x1="906.82" y1="204.95" x2="894.07" y2="204.95"/><line class="a" x1="906.82" y1="209.95" x2="894.07" y2="209.95"/><line class="a" x1="906.82" y1="214.95" x2="894.07" y2="214.95"/><line class="a" x1="856.05" y1="184" x2="889.11" y2="184"/><line class="a" x1="856.05" y1="188.14" x2="889.11" y2="188.14"/><line class="a" x1="856.05" y1="197" x2="889.11" y2="197"/><line class="a" x1="856.05" y1="201.14" x2="889.11" y2="201.14"/><line class="a" x1="856.05" y1="210" x2="889.11" y2="210"/><line class="a" x1="856.05" y1="214.14" x2="889.11" y2="214.14"/><line class="a" x1="879.45" y1="223" x2="856.06" y2="223"/><line class="a" x1="879.45" y1="227.14" x2="856.06" y2="227.14"/><line class="a" x1="861.61" y1="184" x2="861.61" y2="188.14"/><line class="a" x1="866.11" y1="184" x2="866.11" y2="188.14"/><line class="a" x1="871.61" y1="184" x2="871.61" y2="188.14"/><line class="a" x1="876.11" y1="184" x2="876.11" y2="188.14"/><line class="a" x1="881.61" y1="184" x2="881.61" y2="188.14"/><line class="a" x1="886.11" y1="184" x2="886.11" y2="188.14"/><line class="a" x1="859.61" y1="197" x2="859.61" y2="201.14"/><line class="a" x1="864.11" y1="197" x2="864.11" y2="201.14"/><line class="a" x1="869.61" y1="197" x2="869.61" y2="201.14"/><line class="a" x1="874.11" y1="197" x2="874.11" y2="201.14"/><line class="a" x1="879.61" y1="197" x2="879.61" y2="201.14"/><line class="a" x1="884.11" y1="197" x2="884.11" y2="201.14"/><line class="a" x1="861.61" y1="210" x2="861.61" y2="214.14"/><line class="a" x1="866.11" y1="210" x2="866.11" y2="214.14"/><line class="a" x1="871.61" y1="210" x2="871.61" y2="214.14"/><line class="a" x1="876.11" y1="210" x2="876.11" y2="214.14"/><line class="a" x1="881.61" y1="210" x2="881.61" y2="214.14"/><line class="a" x1="886.11" y1="210" x2="886.11" y2="214.14"/><line class="a" x1="859.61" y1="223" x2="859.61" y2="227.14"/><line class="a" x1="864.11" y1="223" x2="864.11" y2="227.14"/><line class="a" x1="869.61" y1="223" x2="869.61" y2="227.14"/><line class="a" x1="874.11" y1="223" x2="874.11" y2="227.14"/><line class="a" x1="1062.11" y1="178.53" x2="1062.11" y2="224.67"/><line class="a" x1="1072.11" y1="178.53" x2="1072.11" y2="224.67"/><line class="a" x1="1082.11" y1="178.53" x2="1082.11" y2="224.67"/><line class="a" x1="1092.11" y1="178.53" x2="1092.11" y2="224.67"/><line class="a" x1="1053.04" y1="216.6" x2="1102.18" y2="216.6"/><line class="a" x1="1053.04" y1="206.6" x2="1102.18" y2="206.6"/><line class="a" x1="1053.04" y1="196.6" x2="1102.18" y2="196.6"/><line class="a" x1="1053.04" y1="186.6" x2="1102.18" y2="186.6"/><line class="a" x1="1077.33" y1="145.5" x2="1101.71" y2="145.5"/><line class="a" x1="1077.33" y1="149.5" x2="1101.71" y2="149.5"/><line class="a" x1="1077.33" y1="165.5" x2="1101.71" y2="165.5"/><line class="a" x1="1077.33" y1="169.5" x2="1101.71" y2="169.5"/><line class="a" x1="1077.33" y1="155.5" x2="1101.71" y2="155.5"/><line class="a" x1="1077.33" y1="159.5" x2="1101.71" y2="159.5"/><line class="a" x1="1082.11" y1="145.5" x2="1082.11" y2="149.5"/><line class="a" x1="1088.11" y1="165.5" x2="1088.11" y2="169.5"/><line class="a" x1="1093.11" y1="155.5" x2="1093.11" y2="159.5"/><line class="a" x1="1095.11" y1="140.22" x2="1095.11" y2="135.38"/><rect class="a" x="1000.32" y="180.75" width="3.56" height="13.13"/><rect class="a" x="992.32" y="180.75" width="3.56" height="13.13"/><rect class="a" x="1016.32" y="180.75" width="3.56" height="13.13"/><rect class="a" x="1008.32" y="180.75" width="3.56" height="13.13"/><rect class="a" x="1024.32" y="180.75" width="3.56" height="13.13"/><line class="a" x1="988.45" y1="174.95" x2="1031.95" y2="174.95"/><line class="a" x1="988.45" y1="171.38" x2="1031.95" y2="171.38"/><polyline class="a" points="1026.1 168.35 1026.1 165.38 999.29 165.38 999.29 168"/><line class="a" x1="1019.88" y1="165.38" x2="1019.88" y2="160.69"/><polyline class="a" points="1037.45 247.33 1037.45 231.33 1101.71 231.33"/><polyline class="a" points="1042.45 247.33 1053.23 236.54 1101.71 236.54"/><polyline class="a" points="1051.45 247.33 1057.24 241.54 1101.71 241.54"/><line class="a" x1="1062.11" y1="241.54" x2="1062.11" y2="247.33"/><line class="a" x1="1072.11" y1="241.54" x2="1072.11" y2="247.33"/><line class="a" x1="1082.11" y1="241.54" x2="1082.11" y2="247.33"/><line class="a" x1="1092.11" y1="241.54" x2="1092.11" y2="247.33"/><line class="a" x1="973.78" y1="201.88" x2="973.78" y2="220.9"/><line class="a" x1="1046.45" y1="201.88" x2="1046.45" y2="225.38"/><rect class="a" x="978.78" y="201.88" width="5.5" height="5.5"/><rect class="a" x="988.78" y="201.88" width="5.5" height="5.5"/><rect class="a" x="1006.78" y="201.88" width="5.5" height="5.5"/><rect class="a" x="1025.78" y="201.88" width="5.5" height="5.5"/><rect class="a" x="1035.78" y="201.88" width="5.5" height="5.5"/><rect class="a" x="978.78" y="211.88" width="5.5" height="5.5"/><rect class="a" x="988.78" y="211.88" width="5.5" height="5.5"/><rect class="a" x="1006.78" y="211.88" width="5.5" height="5.5"/><rect class="a" x="1025.78" y="211.88" width="5.5" height="5.5"/><rect class="a" x="1035.78" y="211.88" width="5.5" height="5.5"/><line class="a" x1="988.45" y1="223" x2="988.45" y2="230.9"/><line class="a" x1="1025.78" y1="223" x2="1025.78" y2="230.9"/><line class="c" x1="720.7" y1="69.6" x2="714.95" y2="69.6"/><line class="c" x1="763.2" y1="69.6" x2="758.2" y2="69.6"/><line class="c" x1="779.2" y1="69.6" x2="767.45" y2="69.6"/><path class="c" d="M537,313.6h-22.3a4.89,4.89,0,0,1,3.87-7.91,4.92,4.92,0,0,1,1.39.2,7.33,7.33,0,0,1,12.78-3.37,6.7,6.7,0,0,1,6.46,1,11.58,11.58,0,0,1,11.38-9.42,11.44,11.44,0,0,1,6.23,1.83,19,19,0,0,1,37.06-3.1,11.49,11.49,0,0,1,18,11.83,5.62,5.62,0,0,1,1.54-.22,5.56,5.56,0,0,1,3.62,1.33,7.25,7.25,0,0,1,14.47.58,5.66,5.66,0,0,1-.08,1,4.6,4.6,0,0,1,.91-0.09,5,5,0,0,1,5,5,4.85,4.85,0,0,1-.18,1.33h-24.9" transform="translate(172.45 -244)"/><path class="c" d="M443.1,358.71h-7.2a4.76,4.76,0,0,1-.48-2.1,4.87,4.87,0,0,1,4.86-4.86,4.81,4.81,0,0,1,1.53.25" transform="translate(172.45 -244)"/><path class="c" d="M441.81,352a8.75,8.75,0,0,1,8.56-6.93,7.08,7.08,0,0,1,1.13.08" transform="translate(172.45 -244)"/><path class="c" d="M451.5,345.15a12.62,12.62,0,0,1,24.57.27" transform="translate(172.45 -244)"/><path class="c" d="M486.92,358.71" transform="translate(172.45 -244)"/><path class="c" d="M476.07,345.42a8.92,8.92,0,0,1,13.6,6.72" transform="translate(172.45 -244)"/><path class="c" d="M489.67,352.14a4.91,4.91,0,0,1,1.92-.39,5,5,0,0,1,5,5.05,4.86,4.86,0,0,1-.38,1.91h-8.62" transform="translate(172.45 -244)"/><line class="c" x1="608.34" y1="114.7" x2="620.82" y2="114.7"/><line class="c" x1="649.57" y1="114.7" x2="655.07" y2="114.71"/><path class="c" d="M496.25,358.71" transform="translate(172.45 -244)"/><path class="c" d="M777.27,326.94a7.08,7.08,0,0,1,1.13.08" transform="translate(172.45 -244)"/><path class="c" d="M778.4,327a12.62,12.62,0,0,1,24.57.27" transform="translate(172.45 -244)"/><path class="c" d="M813.82,340.58" transform="translate(172.45 -244)"/><path class="c" d="M803,327.29a8.92,8.92,0,0,1,13.6,6.72" transform="translate(172.45 -244)"/><path class="c" d="M816.57,334a4.91,4.91,0,0,1,1.92-.39,5,5,0,0,1,5,5.05,4.86,4.86,0,0,1-.38,1.91h-8.62" transform="translate(172.45 -244)"/><line class="c" x1="976.47" y1="96.58" x2="981.97" y2="96.58"/><path class="c" d="M823.15,340.58" transform="translate(172.45 -244)"/><line class="c" x1="1022.22" y1="145.34" x2="1013.75" y2="145.34"/><line class="c" x1="1058.73" y1="145.34" x2="1053.09" y2="145.34"/><path class="c" d="M886.29,389.34A4.76,4.76,0,0,0,881.8,383a4.94,4.94,0,0,0-1.45.22" transform="translate(172.45 -244)"/><path class="c" d="M847.09,383.21a4.57,4.57,0,0,0-1.29-.18,4.76,4.76,0,0,0-4.49,6.31" transform="translate(172.45 -244)"/><path class="c" d="M847.09,383.21a17.08,17.08,0,0,1,33.26,0" transform="translate(172.45 -244)"/><line class="c" x1="1049.87" y1="145.34" x2="1040.81" y2="145.34"/><line class="c" x1="314.32" y1="103.39" x2="309.65" y2="103.39"/><path class="c" d="M132.73,347.39H114.62a4,4,0,0,1,3.15-6.43,3.86,3.86,0,0,1,1.13.17,5.95,5.95,0,0,1,10.38-2.74,5.44,5.44,0,0,1,5.24.81,9.42,9.42,0,0,1,9.25-7.65,9.27,9.27,0,0,1,5.06,1.49,15.43,15.43,0,0,1,30.1-2.52,9.23,9.23,0,0,1,5.51-1.81,9.37,9.37,0,0,1,3.93.86" transform="translate(172.45 -244)"/><path class="c" d="M-8,341h-4.71a3.11,3.11,0,0,1-.31-1.37,3.18,3.18,0,0,1,3.18-3.18,3.14,3.14,0,0,1,1,.16" transform="translate(172.45 -244)"/><path class="c" d="M-8.82,336.59a5.72,5.72,0,0,1,5.59-4.53,4.62,4.62,0,0,1,.74.05" transform="translate(172.45 -244)"/><path class="c" d="M-2.49,332.12a8.25,8.25,0,0,1,16.06.18" transform="translate(172.45 -244)"/><path class="c" d="M20.65,341" transform="translate(172.45 -244)"/><path class="c" d="M13.56,332.29a5.83,5.83,0,0,1,8.89,4.39" transform="translate(172.45 -244)"/><path class="c" d="M22.45,336.69a3.21,3.21,0,0,1,1.25-.25,3.3,3.3,0,0,1,3.29,3.3,3.18,3.18,0,0,1-.25,1.25H21.12" transform="translate(172.45 -244)"/><line class="c" x1="159.76" y1="96.98" x2="167.91" y2="96.98"/><line class="c" x1="186.7" y1="96.98" x2="190.3" y2="96.98"/><path class="c" d="M26.75,341" transform="translate(172.45 -244)"/><polyline class="c" points="16.21 79.42 16.47 79.42 21.76 79.42"/><line class="c" x1="49.84" y1="79.42" x2="45.5" y2="79.42"/><path class="c" d="M-122.61,323.42a3.64,3.64,0,0,0,.2-1.2,3.66,3.66,0,0,0-3.65-3.65,3.8,3.8,0,0,0-1.12.17" transform="translate(172.45 -244)"/><path class="c" d="M-156.24,319.54s0,0,0,0a3.64,3.64,0,0,1,2.47-1,3.66,3.66,0,0,1,1,.14" transform="translate(172.45 -244)"/><path class="c" d="M-152.76,318.7A13.13,13.13,0,0,1-140,308.56a13.13,13.13,0,0,1,12.79,10.17" transform="translate(172.45 -244)"/><line class="c" x1="43.02" y1="79.42" x2="36.05" y2="79.42"/><line class="c" x1="870.36" y1="130.22" x2="864.61" y2="130.22"/><path class="c" d="M683.61,356.55a11.44,11.44,0,0,1,6.23-1.83,11.58,11.58,0,0,1,11.38,9.42,6.7,6.7,0,0,1,6.46-1,7.33,7.33,0,0,1,12.78,3.37,4.91,4.91,0,0,1,6.3,4.7,4.86,4.86,0,0,1-1,3h-22.3" transform="translate(172.45 -244)"/><path class="c" d="M629.44,373.44l-20.53-.11a4.89,4.89,0,0,1,3.87-7.91,4.92,4.92,0,0,1,1.39.2,7.33,7.33,0,0,1,12.78-3.37,6.7,6.7,0,0,1,2.34-.42" transform="translate(172.45 -244)"/></svg>